{"notes":[{"pitch":36,"velocity":120,"time":0,"duration":0.7272727272727273,"channel":9},{"pitch":56,"time":0,"duration":0.25,"velocity":50},{"pitch":60,"time":1,"duration":0.5,"velocity":50},{"pitch":42,"velocity":60,"time":1.4545454545454546,"duration":0.7272727272727273,"channel":9},{"pitch":64,"time":1.5,"duration":0.5,"velocity":65},{"pitch":60,"time":2,"duration":0.5,"velocity":50},{"pitch":56,"time":2.5,"duration":2,"velocity":65},{"pitch":38,"velocity":90,"time":4,"duration":0.7272727272727273,"channel":9},{"pitch":56,"time":5,"duration":1,"velocity":50},{"pitch":42,"velocity":60,"time":5.454545454545455,"duration":0.7272727272727273,"channel":9},{"pitch":60,"time":6,"duration":0.25,"velocity":50},{"pitch":42,"velocity":20,"time":6.1818181818181825,"duration":0.7272727272727273,"channel":9},{"pitch":64,"time":6.5,"duration":0.25,"velocity":50},{"pitch":36,"velocity":120,"time":6.90909090909091,"duration":1.8181818181818183,"channel":9},{"pitch":56,"time":7,"duration":0.25,"velocity":50},{"pitch":38,"velocity":90,"time":12.000000000000002,"duration":0.7272727272727273,"channel":9},{"pitch":42,"velocity":60,"time":13.81818181818182,"duration":1.4545454545454546,"channel":9},{"pitch":56,"time":16,"duration":1,"velocity":65},{"pitch":42,"velocity":20,"time":16.72727272727273,"duration":0.7272727272727273,"channel":9},{"pitch":60,"time":17,"duration":0.25,"velocity":50},{"pitch":42,"velocity":60,"time":17.454545454545457,"duration":0.7272727272727273,"channel":9},{"pitch":64,"time":17.5,"duration":0.25,"velocity":50},{"pitch":56,"time":18,"duration":1,"velocity":50},{"pitch":60,"time":19,"duration":0.25,"velocity":50},{"pitch":64,"time":19.5,"duration":0.25,"velocity":50},{"pitch":38,"velocity":90,"time":20,"duration":0.7272727272727273,"channel":9},{"pitch":60,"time":20,"duration":0.25,"velocity":50},{"pitch":57,"time":22.5,"duration":2,"velocity":50},{"pitch":36,"velocity":120,"time":22.909090909090907,"duration":1.8181818181818183,"channel":9},{"pitch":61,"time":23,"duration":1,"velocity":50},{"pitch":42,"velocity":20,"time":24.727272727272727,"duration":1.0909090909090908,"channel":9},{"pitch":42,"velocity":60,"time":25.818181818181817,"duration":1.4545454545454546,"channel":9},{"pitch":64,"time":26.5,"duration":0.5,"velocity":65},{"pitch":36,"velocity":120,"time":32,"duration":0.7272727272727273,"channel":9},{"pitch":42,"velocity":60,"time":33.45454545454545,"duration":0.7272727272727273,"channel":9},{"pitch":56,"time":34,"duration":1,"velocity":50},{"pitch":38,"velocity":90,"time":36,"duration":0.7272727272727273,"channel":9},{"pitch":65,"time":37,"duration":0.5,"velocity":65},{"pitch":42,"velocity":60,"time":37.45454545454545,"duration":0.7272727272727273,"channel":9},{"pitch":70,"time":37.5,"duration":0.5,"velocity":50},{"pitch":65,"time":38,"duration":0.5,"velocity":50},{"pitch":42,"velocity":20,"time":38.18181818181818,"duration":0.7272727272727273,"channel":9},{"pitch":36,"velocity":120,"time":38.90909090909091,"duration":1.8181818181818183,"channel":9},{"pitch":56,"time":41,"duration":0.25,"velocity":50},{"pitch":60,"time":42,"duration":0.25,"velocity":50},{"pitch":63,"time":42.5,"duration":0.25,"velocity":65},{"pitch":56,"time":43,"duration":0.25,"velocity":50},{"pitch":38,"velocity":90,"time":44,"duration":0.7272727272727273,"channel":9},{"pitch":64,"time":44.5,"duration":0.5,"velocity":50},{"pitch":42,"velocity":60,"time":45.81818181818182,"duration":1.4545454545454546,"channel":9},{"pitch":56,"time":47.5,"duration":2,"velocity":65},{"pitch":42,"velocity":20,"time":48.727272727272734,"duration":0.7272727272727273,"channel":9},{"pitch":42,"velocity":60,"time":49.45454545454545,"duration":0.7272727272727273,"channel":9},{"pitch":52,"time":49.5,"duration":0.25,"velocity":50},{"pitch":56,"time":50,"duration":0.25,"velocity":50},{"pitch":60,"time":51,"duration":0.25,"velocity":65},{"pitch":38,"velocity":90,"time":52,"duration":0.7272727272727273,"channel":9},{"pitch":56,"time":54,"duration":0.25,"velocity":65},{"pitch":36,"velocity":120,"time":54.90909090909091,"duration":1.8181818181818183,"channel":9},{"pitch":60,"time":56,"duration":0.25,"velocity":50},{"pitch":56,"time":56.5,"duration":2,"velocity":50},{"pitch":42,"velocity":20,"time":56.72727272727273,"duration":1.0909090909090908,"channel":9},{"pitch":42,"velocity":60,"time":57.81818181818181,"duration":1.4545454545454546,"channel":9},{"pitch":56,"time":59,"duration":1,"velocity":50},{"pitch":64,"time":60.5,"duration":0.25,"velocity":50},{"pitch":56,"time":61,"duration":0.25,"velocity":50},{"pitch":60,"time":62,"duration":0.25,"velocity":50},{"pitch":56,"time":63,"duration":0.25,"velocity":50},{"pitch":36,"velocity":120,"time":64,"duration":0.7272727272727273,"channel":9},{"pitch":62,"time":64,"duration":0.25,"velocity":50},{"pitch":60,"time":65,"duration":0.5,"velocity":50},{"pitch":42,"velocity":60,"time":65.45454545454545,"duration":0.7272727272727273,"channel":9},{"pitch":64,"time":65.5,"duration":0.5,"velocity":65},{"pitch":64,"time":66,"duration":0.5,"velocity":50},{"pitch":56,"time":66.5,"duration":2,"velocity":65},{"pitch":38,"velocity":90,"time":68,"duration":0.7272727272727273,"channel":9},{"pitch":61,"time":69,"duration":1,"velocity":50},{"pitch":42,"velocity":60,"time":69.45454545454545,"duration":0.7272727272727273,"channel":9},{"pitch":66,"time":70,"duration":0.25,"velocity":50},{"pitch":42,"velocity":20,"time":70.18181818181819,"duration":0.7272727272727273,"channel":9},{"pitch":68,"time":70.5,"duration":0.25,"velocity":50},{"pitch":36,"velocity":120,"time":70.9090909090909,"duration":1.8181818181818183,"channel":9},{"pitch":56,"time":71,"duration":0.25,"velocity":50},{"pitch":38,"velocity":90,"time":76,"duration":0.7272727272727273,"channel":9},{"pitch":42,"velocity":60,"time":77.81818181818181,"duration":1.4545454545454546,"channel":9},{"pitch":56,"time":80,"duration":1,"velocity":65},{"pitch":42,"velocity":20,"time":80.72727272727273,"duration":0.7272727272727273,"channel":9},{"pitch":60,"time":81,"duration":0.25,"velocity":50},{"pitch":42,"velocity":60,"time":81.45454545454545,"duration":0.7272727272727273,"channel":9},{"pitch":63,"time":81.5,"duration":0.25,"velocity":50},{"pitch":57,"time":82,"duration":1,"velocity":50},{"pitch":60,"time":83,"duration":0.25,"velocity":50},{"pitch":64,"time":83.5,"duration":0.25,"velocity":50},{"pitch":38,"velocity":90,"time":84,"duration":0.7272727272727273,"channel":9},{"pitch":60,"time":84,"duration":0.25,"velocity":50},{"pitch":52,"time":86.5,"duration":2,"velocity":50},{"pitch":36,"velocity":120,"time":86.9090909090909,"duration":1.8181818181818183,"channel":9},{"pitch":56,"time":87,"duration":1,"velocity":50},{"pitch":42,"velocity":20,"time":88.72727272727272,"duration":1.0909090909090908,"channel":9},{"pitch":42,"velocity":60,"time":89.81818181818181,"duration":1.4545454545454546,"channel":9},{"pitch":63,"time":90.5,"duration":0.5,"velocity":65},{"pitch":36,"velocity":120,"time":96,"duration":0.7272727272727273,"channel":9},{"pitch":42,"velocity":60,"time":97.45454545454545,"duration":0.7272727272727273,"channel":9},{"pitch":56,"time":98,"duration":1,"velocity":50},{"pitch":38,"velocity":90,"time":100,"duration":0.7272727272727273,"channel":9},{"pitch":60,"time":101,"duration":0.5,"velocity":65},{"pitch":42,"velocity":60,"time":101.45454545454545,"duration":0.7272727272727273,"channel":9},{"pitch":70,"time":101.5,"duration":0.5,"velocity":50},{"pitch":66,"time":102,"duration":0.5,"velocity":50},{"pitch":42,"velocity":20,"time":102.18181818181819,"duration":0.7272727272727273,"channel":9},{"pitch":36,"velocity":120,"time":102.9090909090909,"duration":1.8181818181818183,"channel":9},{"pitch":61,"time":105,"duration":0.25,"velocity":50},{"pitch":60,"time":106,"duration":0.25,"velocity":50},{"pitch":64,"time":106.5,"duration":0.25,"velocity":65},{"pitch":56,"time":107,"duration":0.25,"velocity":50},{"pitch":38,"velocity":90,"time":108,"duration":0.7272727272727273,"channel":9},{"pitch":64,"time":108.5,"duration":0.5,"velocity":50},{"pitch":42,"velocity":60,"time":109.81818181818181,"duration":1.4545454545454546,"channel":9},{"pitch":62,"time":111.5,"duration":2,"velocity":65},{"pitch":42,"velocity":20,"time":112.72727272727273,"duration":0.7272727272727273,"channel":9},{"pitch":42,"velocity":60,"time":113.45454545454545,"duration":0.7272727272727273,"channel":9},{"pitch":52,"time":113.5,"duration":0.25,"velocity":50},{"pitch":61,"time":114,"duration":0.25,"velocity":50},{"pitch":60,"time":115,"duration":0.25,"velocity":65},{"pitch":38,"velocity":90,"time":116,"duration":0.7272727272727273,"channel":9},{"pitch":60,"time":118,"duration":0.25,"velocity":65},{"pitch":36,"velocity":120,"time":118.9090909090909,"duration":1.8181818181818183,"channel":9},{"pitch":60,"time":120,"duration":0.25,"velocity":50},{"pitch":56,"time":120.5,"duration":2,"velocity":50},{"pitch":42,"velocity":20,"time":120.72727272727272,"duration":1.0909090909090908,"channel":9},{"pitch":42,"velocity":60,"time":121.81818181818181,"duration":1.4545454545454546,"channel":9},{"pitch":56,"time":123,"duration":1,"velocity":50},{"pitch":64,"time":124.5,"duration":0.25,"velocity":50},{"pitch":56,"time":125,"duration":0.25,"velocity":50},{"pitch":60,"time":126,"duration":0.25,"velocity":50},{"pitch":56,"time":127,"duration":0.25,"velocity":50},{"pitch":36,"velocity":120,"time":128,"duration":0.7272727272727273,"channel":9},{"pitch":56,"time":128,"duration":0.25,"velocity":50},{"pitch":60,"time":129,"duration":0.5,"velocity":50},{"pitch":42,"velocity":60,"time":129.45454545454547,"duration":0.7272727272727273,"channel":9},{"pitch":64,"time":129.5,"duration":0.5,"velocity":65},{"pitch":60,"time":130,"duration":0.5,"velocity":50},{"pitch":56,"time":130.5,"duration":2,"velocity":65},{"pitch":38,"velocity":90,"time":132,"duration":0.7272727272727273,"channel":9},{"pitch":55,"time":133,"duration":1,"velocity":50},{"pitch":42,"velocity":60,"time":133.45454545454547,"duration":0.7272727272727273,"channel":9},{"pitch":60,"time":134,"duration":0.25,"velocity":50},{"pitch":42,"velocity":20,"time":134.1818181818182,"duration":0.7272727272727273,"channel":9},{"pitch":64,"time":134.5,"duration":0.25,"velocity":50},{"pitch":36,"velocity":120,"time":134.9090909090909,"duration":1.8181818181818183,"channel":9},{"pitch":56,"time":135,"duration":0.25,"velocity":50},{"pitch":38,"velocity":90,"time":140,"duration":0.7272727272727273,"channel":9},{"pitch":42,"velocity":60,"time":141.8181818181818,"duration":1.4545454545454546,"channel":9},{"pitch":60,"time":144,"duration":1,"velocity":65},{"pitch":42,"velocity":20,"time":144.72727272727272,"duration":0.7272727272727273,"channel":9},{"pitch":60,"time":145,"duration":0.25,"velocity":50},{"pitch":42,"velocity":60,"time":145.45454545454547,"duration":0.7272727272727273,"channel":9},{"pitch":64,"time":145.5,"duration":0.25,"velocity":50},{"pitch":56,"time":146,"duration":1,"velocity":50},{"pitch":60,"time":147,"duration":0.25,"velocity":50},{"pitch":69,"time":147.5,"duration":0.25,"velocity":50},{"pitch":38,"velocity":90,"time":148,"duration":0.7272727272727273,"channel":9},{"pitch":65,"time":148,"duration":0.25,"velocity":50},{"pitch":56,"time":150.5,"duration":2,"velocity":50},{"pitch":36,"velocity":120,"time":150.9090909090909,"duration":1.8181818181818183,"channel":9},{"pitch":62,"time":151,"duration":1,"velocity":50},{"pitch":42,"velocity":20,"time":152.72727272727272,"duration":1.0909090909090908,"channel":9},{"pitch":42,"velocity":60,"time":153.8181818181818,"duration":1.4545454545454546,"channel":9},{"pitch":68,"time":154.5,"duration":0.5,"velocity":65},{"pitch":36,"velocity":120,"time":160,"duration":0.7272727272727273,"channel":9},{"pitch":42,"velocity":60,"time":161.45454545454547,"duration":0.7272727272727273,"channel":9},{"pitch":56,"time":162,"duration":1,"velocity":50},{"pitch":38,"velocity":90,"time":164,"duration":0.7272727272727273,"channel":9},{"pitch":60,"time":165,"duration":0.5,"velocity":65},{"pitch":42,"velocity":60,"time":165.45454545454547,"duration":0.7272727272727273,"channel":9},{"pitch":64,"time":165.5,"duration":0.5,"velocity":50},{"pitch":60,"time":166,"duration":0.5,"velocity":50},{"pitch":42,"velocity":20,"time":166.1818181818182,"duration":0.7272727272727273,"channel":9},{"pitch":36,"velocity":120,"time":166.9090909090909,"duration":1.8181818181818183,"channel":9},{"pitch":56,"time":169,"duration":0.25,"velocity":50},{"pitch":60,"time":170,"duration":0.25,"velocity":50},{"pitch":64,"time":170.5,"duration":0.25,"velocity":65},{"pitch":57,"time":171,"duration":0.25,"velocity":50},{"pitch":38,"velocity":90,"time":172,"duration":0.7272727272727273,"channel":9},{"pitch":64,"time":172.5,"duration":0.5,"velocity":50},{"pitch":42,"velocity":60,"time":173.8181818181818,"duration":1.4545454545454546,"channel":9},{"pitch":57,"time":175.5,"duration":2,"velocity":65},{"pitch":42,"velocity":20,"time":176.72727272727272,"duration":0.7272727272727273,"channel":9},{"pitch":42,"velocity":60,"time":177.45454545454547,"duration":0.7272727272727273,"channel":9},{"pitch":52,"time":177.5,"duration":0.25,"velocity":50},{"pitch":56,"time":178,"duration":0.25,"velocity":50},{"pitch":60,"time":179,"duration":0.25,"velocity":65},{"pitch":38,"velocity":90,"time":180,"duration":0.7272727272727273,"channel":9},{"pitch":61,"time":182,"duration":0.25,"velocity":65},{"pitch":36,"velocity":120,"time":182.9090909090909,"duration":1.8181818181818183,"channel":9},{"pitch":60,"time":184,"duration":0.25,"velocity":50},{"pitch":56,"time":184.5,"duration":2,"velocity":50},{"pitch":42,"velocity":20,"time":184.72727272727272,"duration":1.0909090909090908,"channel":9},{"pitch":42,"velocity":60,"time":185.8181818181818,"duration":1.4545454545454546,"channel":9},{"pitch":56,"time":187,"duration":1,"velocity":50},{"pitch":65,"time":188.5,"duration":0.25,"velocity":50},{"pitch":56,"time":189,"duration":0.25,"velocity":50},{"pitch":64,"time":190,"duration":0.25,"velocity":50},{"pitch":61,"time":191,"duration":0.25,"velocity":50},{"pitch":36,"velocity":120,"time":192,"duration":0.7272727272727273,"channel":9},{"pitch":56,"time":192,"duration":0.25,"velocity":50},{"pitch":60,"time":193,"duration":0.5,"velocity":50},{"pitch":42,"velocity":60,"time":193.45454545454547,"duration":0.7272727272727273,"channel":9},{"pitch":64,"time":193.5,"duration":0.5,"velocity":65},{"pitch":65,"time":194,"duration":0.5,"velocity":50},{"pitch":56,"time":194.5,"duration":2,"velocity":65},{"pitch":38,"velocity":90,"time":196,"duration":0.7272727272727273,"channel":9},{"pitch":56,"time":197,"duration":1,"velocity":50},{"pitch":42,"velocity":60,"time":197.45454545454547,"duration":0.7272727272727273,"channel":9},{"pitch":60,"time":198,"duration":0.25,"velocity":50},{"pitch":42,"velocity":20,"time":198.1818181818182,"duration":0.7272727272727273,"channel":9},{"pitch":68,"time":198.5,"duration":0.25,"velocity":50},{"pitch":36,"velocity":120,"time":198.9090909090909,"duration":1.8181818181818183,"channel":9},{"pitch":62,"time":199,"duration":0.25,"velocity":50},{"pitch":38,"velocity":90,"time":204,"duration":0.7272727272727273,"channel":9},{"pitch":42,"velocity":60,"time":205.8181818181818,"duration":1.4545454545454546,"channel":9},{"pitch":56,"time":208,"duration":1,"velocity":65},{"pitch":42,"velocity":20,"time":208.72727272727272,"duration":0.7272727272727273,"channel":9},{"pitch":60,"time":209,"duration":0.25,"velocity":50},{"pitch":42,"velocity":60,"time":209.45454545454547,"duration":0.7272727272727273,"channel":9},{"pitch":64,"time":209.5,"duration":0.25,"velocity":50},{"pitch":56,"time":210,"duration":1,"velocity":50},{"pitch":60,"time":211,"duration":0.25,"velocity":50},{"pitch":64,"time":211.5,"duration":0.25,"velocity":50},{"pitch":38,"velocity":90,"time":212,"duration":0.7272727272727273,"channel":9},{"pitch":60,"time":212,"duration":0.25,"velocity":50},{"pitch":52,"time":214.5,"duration":2,"velocity":50},{"pitch":36,"velocity":120,"time":214.9090909090909,"duration":1.8181818181818183,"channel":9},{"pitch":56,"time":215,"duration":1,"velocity":50},{"pitch":42,"velocity":20,"time":216.72727272727272,"duration":1.0909090909090908,"channel":9},{"pitch":42,"velocity":60,"time":217.8181818181818,"duration":1.4545454545454546,"channel":9},{"pitch":64,"time":218.5,"duration":0.5,"velocity":65},{"pitch":36,"velocity":120,"time":224,"duration":0.7272727272727273,"channel":9},{"pitch":42,"velocity":60,"time":225.45454545454547,"duration":0.7272727272727273,"channel":9},{"pitch":56,"time":226,"duration":1,"velocity":50},{"pitch":38,"velocity":90,"time":228,"duration":0.7272727272727273,"channel":9},{"pitch":60,"time":229,"duration":0.5,"velocity":65},{"pitch":42,"velocity":60,"time":229.45454545454547,"duration":0.7272727272727273,"channel":9},{"pitch":69,"time":229.5,"duration":0.5,"velocity":50},{"pitch":60,"time":230,"duration":0.5,"velocity":50},{"pitch":42,"velocity":20,"time":230.1818181818182,"duration":0.7272727272727273,"channel":9},{"pitch":36,"velocity":120,"time":230.9090909090909,"duration":1.8181818181818183,"channel":9},{"pitch":56,"time":233,"duration":0.25,"velocity":50},{"pitch":66,"time":234,"duration":0.25,"velocity":50},{"pitch":69,"time":234.5,"duration":0.25,"velocity":65},{"pitch":56,"time":235,"duration":0.25,"velocity":50},{"pitch":38,"velocity":90,"time":236,"duration":0.7272727272727273,"channel":9},{"pitch":64,"time":236.5,"duration":0.5,"velocity":50},{"pitch":42,"velocity":60,"time":237.8181818181818,"duration":1.4545454545454546,"channel":9},{"pitch":56,"time":239.5,"duration":2,"velocity":65},{"pitch":42,"velocity":20,"time":240.72727272727272,"duration":0.7272727272727273,"channel":9},{"pitch":42,"velocity":60,"time":241.45454545454547,"duration":0.7272727272727273,"channel":9},{"pitch":52,"time":241.5,"duration":0.25,"velocity":50},{"pitch":56,"time":242,"duration":0.25,"velocity":50},{"pitch":60,"time":243,"duration":0.25,"velocity":65},{"pitch":38,"velocity":90,"time":244,"duration":0.7272727272727273,"channel":9},{"pitch":56,"time":246,"duration":0.25,"velocity":65},{"pitch":36,"velocity":120,"time":246.9090909090909,"duration":1.8181818181818183,"channel":9},{"pitch":60,"time":248,"duration":0.25,"velocity":50},{"pitch":56,"time":248.5,"duration":2,"velocity":50},{"pitch":42,"velocity":20,"time":248.72727272727272,"duration":1.0909090909090908,"channel":9},{"pitch":42,"velocity":60,"time":249.8181818181818,"duration":1.4545454545454546,"channel":9},{"pitch":56,"time":251,"duration":1,"velocity":50},{"pitch":64,"time":252.5,"duration":0.25,"velocity":50},{"pitch":56,"time":253,"duration":0.25,"velocity":50},{"pitch":60,"time":254,"duration":0.25,"velocity":50},{"pitch":56,"time":255,"duration":0.25,"velocity":50},{"pitch":36,"velocity":120,"time":256,"duration":0.7272727272727273,"channel":9},{"pitch":56,"time":256,"duration":0.25,"velocity":50},{"pitch":60,"time":257,"duration":0.5,"velocity":50},{"pitch":42,"velocity":60,"time":257.45454545454544,"duration":0.7272727272727273,"channel":9},{"pitch":64,"time":257.5,"duration":0.5,"velocity":65},{"pitch":60,"time":258,"duration":0.5,"velocity":50},{"pitch":56,"time":258.5,"duration":2,"velocity":65},{"pitch":38,"velocity":90,"time":260,"duration":0.7272727272727273,"channel":9},{"pitch":56,"time":261,"duration":1,"velocity":50},{"pitch":42,"velocity":60,"time":261.45454545454544,"duration":0.7272727272727273,"channel":9},{"pitch":64,"time":262,"duration":0.25,"velocity":50},{"pitch":42,"velocity":20,"time":262.1818181818182,"duration":0.7272727272727273,"channel":9},{"pitch":69,"time":262.5,"duration":0.25,"velocity":50},{"pitch":36,"velocity":120,"time":262.90909090909093,"duration":1.8181818181818183,"channel":9},{"pitch":60,"time":263,"duration":0.25,"velocity":50},{"pitch":38,"velocity":90,"time":268,"duration":0.7272727272727273,"channel":9},{"pitch":42,"velocity":60,"time":269.8181818181818,"duration":1.4545454545454546,"channel":9},{"pitch":56,"time":272,"duration":1,"velocity":65},{"pitch":42,"velocity":20,"time":272.72727272727275,"duration":0.7272727272727273,"channel":9},{"pitch":60,"time":273,"duration":0.25,"velocity":50},{"pitch":42,"velocity":60,"time":273.45454545454544,"duration":0.7272727272727273,"channel":9},{"pitch":64,"time":273.5,"duration":0.25,"velocity":50},{"pitch":55,"time":274,"duration":1,"velocity":50},{"pitch":60,"time":275,"duration":0.25,"velocity":50},{"pitch":64,"time":275.5,"duration":0.25,"velocity":50},{"pitch":38,"velocity":90,"time":276,"duration":0.7272727272727273,"channel":9},{"pitch":61,"time":276,"duration":0.25,"velocity":50},{"pitch":56,"time":278.5,"duration":2,"velocity":50},{"pitch":36,"velocity":120,"time":278.9090909090909,"duration":1.8181818181818183,"channel":9},{"pitch":60,"time":279,"duration":1,"velocity":50},{"pitch":42,"velocity":20,"time":280.72727272727275,"duration":1.0909090909090908,"channel":9},{"pitch":42,"velocity":60,"time":281.8181818181818,"duration":1.4545454545454546,"channel":9},{"pitch":64,"time":282.5,"duration":0.5,"velocity":65},{"pitch":36,"velocity":120,"time":288,"duration":0.7272727272727273,"channel":9},{"pitch":42,"velocity":60,"time":289.45454545454544,"duration":0.7272727272727273,"channel":9},{"pitch":56,"time":290,"duration":1,"velocity":50},{"pitch":38,"velocity":90,"time":292,"duration":0.7272727272727273,"channel":9},{"pitch":60,"time":293,"duration":0.5,"velocity":65},{"pitch":42,"velocity":60,"time":293.45454545454544,"duration":0.7272727272727273,"channel":9},{"pitch":64,"time":293.5,"duration":0.5,"velocity":50},{"pitch":60,"time":294,"duration":0.5,"velocity":50},{"pitch":42,"velocity":20,"time":294.1818181818182,"duration":0.7272727272727273,"channel":9},{"pitch":36,"velocity":120,"time":294.90909090909093,"duration":1.8181818181818183,"channel":9},{"pitch":56,"time":297,"duration":0.25,"velocity":50},{"pitch":60,"time":298,"duration":0.25,"velocity":50},{"pitch":64,"time":298.5,"duration":0.25,"velocity":65},{"pitch":56,"time":299,"duration":0.25,"velocity":50},{"pitch":38,"velocity":90,"time":300,"duration":0.7272727272727273,"channel":9},{"pitch":68,"time":300.5,"duration":0.5,"velocity":50},{"pitch":42,"velocity":60,"time":301.8181818181818,"duration":1.4545454545454546,"channel":9},{"pitch":56,"time":303.5,"duration":2,"velocity":65},{"pitch":42,"velocity":20,"time":304.72727272727275,"duration":0.7272727272727273,"channel":9},{"pitch":42,"velocity":60,"time":305.45454545454544,"duration":0.7272727272727273,"channel":9},{"pitch":56,"time":305.5,"duration":0.25,"velocity":50},{"pitch":60,"time":306,"duration":0.25,"velocity":50},{"pitch":60,"time":307,"duration":0.25,"velocity":65},{"pitch":38,"velocity":90,"time":308,"duration":0.7272727272727273,"channel":9},{"pitch":56,"time":310,"duration":0.25,"velocity":65},{"pitch":36,"velocity":120,"time":310.9090909090909,"duration":1.8181818181818183,"channel":9},{"pitch":60,"time":312,"duration":0.25,"velocity":50},{"pitch":56,"time":312.5,"duration":2,"velocity":50},{"pitch":42,"velocity":20,"time":312.72727272727275,"duration":1.0909090909090908,"channel":9},{"pitch":42,"velocity":60,"time":313.8181818181818,"duration":1.4545454545454546,"channel":9},{"pitch":55,"time":315,"duration":1,"velocity":50},{"pitch":70,"time":316.5,"duration":0.25,"velocity":50},{"pitch":57,"time":317,"duration":0.25,"velocity":50},{"pitch":66,"time":318,"duration":0.25,"velocity":50},{"pitch":62,"time":319,"duration":0.25,"velocity":50},{"pitch":36,"velocity":120,"time":320,"duration":0.7272727272727273,"channel":9},{"pitch":56,"time":320,"duration":0.25,"velocity":50},{"pitch":60,"time":321,"duration":0.5,"velocity":50},{"pitch":42,"velocity":60,"time":321.45454545454544,"duration":0.7272727272727273,"channel":9},{"pitch":65,"time":321.5,"duration":0.5,"velocity":65},{"pitch":60,"time":322,"duration":0.5,"velocity":50},{"pitch":56,"time":322.5,"duration":2,"velocity":65},{"pitch":38,"velocity":90,"time":324,"duration":0.7272727272727273,"channel":9},{"pitch":56,"time":325,"duration":1,"velocity":50},{"pitch":42,"velocity":60,"time":325.45454545454544,"duration":0.7272727272727273,"channel":9},{"pitch":60,"time":326,"duration":0.25,"velocity":50},{"pitch":42,"velocity":20,"time":326.1818181818182,"duration":0.7272727272727273,"channel":9},{"pitch":64,"time":326.5,"duration":0.25,"velocity":50},{"pitch":36,"velocity":120,"time":326.90909090909093,"duration":1.8181818181818183,"channel":9},{"pitch":57,"time":327,"duration":0.25,"velocity":50},{"pitch":38,"velocity":90,"time":332,"duration":0.7272727272727273,"channel":9},{"pitch":42,"velocity":60,"time":333.8181818181818,"duration":1.4545454545454546,"channel":9},{"pitch":56,"time":336,"duration":1,"velocity":65},{"pitch":42,"velocity":20,"time":336.72727272727275,"duration":0.7272727272727273,"channel":9},{"pitch":60,"time":337,"duration":0.25,"velocity":50},{"pitch":42,"velocity":60,"time":337.45454545454544,"duration":0.7272727272727273,"channel":9},{"pitch":64,"time":337.5,"duration":0.25,"velocity":50},{"pitch":56,"time":338,"duration":1,"velocity":50},{"pitch":60,"time":339,"duration":0.25,"velocity":50},{"pitch":64,"time":339.5,"duration":0.25,"velocity":50},{"pitch":38,"velocity":90,"time":340,"duration":0.7272727272727273,"channel":9},{"pitch":66,"time":340,"duration":0.25,"velocity":50},{"pitch":52,"time":342.5,"duration":2,"velocity":50},{"pitch":36,"velocity":120,"time":342.9090909090909,"duration":1.8181818181818183,"channel":9},{"pitch":62,"time":343,"duration":1,"velocity":50},{"pitch":42,"velocity":20,"time":344.72727272727275,"duration":1.0909090909090908,"channel":9},{"pitch":42,"velocity":60,"time":345.8181818181818,"duration":1.4545454545454546,"channel":9},{"pitch":64,"time":346.5,"duration":0.5,"velocity":65},{"pitch":36,"velocity":120,"time":352,"duration":0.7272727272727273,"channel":9},{"pitch":42,"velocity":60,"time":353.45454545454544,"duration":0.7272727272727273,"channel":9},{"pitch":56,"time":354,"duration":1,"velocity":50},{"pitch":38,"velocity":90,"time":356,"duration":0.7272727272727273,"channel":9},{"pitch":60,"time":357,"duration":0.5,"velocity":65},{"pitch":42,"velocity":60,"time":357.45454545454544,"duration":0.7272727272727273,"channel":9},{"pitch":69,"time":357.5,"duration":0.5,"velocity":50},{"pitch":60,"time":358,"duration":0.5,"velocity":50},{"pitch":42,"velocity":20,"time":358.1818181818182,"duration":0.7272727272727273,"channel":9},{"pitch":36,"velocity":120,"time":358.90909090909093,"duration":1.8181818181818183,"channel":9},{"pitch":56,"time":361,"duration":0.25,"velocity":50},{"pitch":59,"time":362,"duration":0.25,"velocity":50},{"pitch":64,"time":362.5,"duration":0.25,"velocity":65},{"pitch":57,"time":363,"duration":0.25,"velocity":50},{"pitch":38,"velocity":90,"time":364,"duration":0.7272727272727273,"channel":9},{"pitch":64,"time":364.5,"duration":0.5,"velocity":50},{"pitch":42,"velocity":60,"time":365.8181818181818,"duration":1.4545454545454546,"channel":9},{"pitch":57,"time":367.5,"duration":2,"velocity":65},{"pitch":42,"velocity":20,"time":368.72727272727275,"duration":0.7272727272727273,"channel":9},{"pitch":42,"velocity":60,"time":369.45454545454544,"duration":0.7272727272727273,"channel":9},{"pitch":52,"time":369.5,"duration":0.25,"velocity":50},{"pitch":57,"time":370,"duration":0.25,"velocity":50},{"pitch":60,"time":371,"duration":0.25,"velocity":65},{"pitch":38,"velocity":90,"time":372,"duration":0.7272727272727273,"channel":9},{"pitch":55,"time":374,"duration":0.25,"velocity":65},{"pitch":36,"velocity":120,"time":374.9090909090909,"duration":1.8181818181818183,"channel":9},{"pitch":60,"time":376,"duration":0.25,"velocity":50},{"pitch":55,"time":376.5,"duration":2,"velocity":50},{"pitch":42,"velocity":20,"time":376.72727272727275,"duration":1.0909090909090908,"channel":9},{"pitch":42,"velocity":60,"time":377.8181818181818,"duration":1.4545454545454546,"channel":9},{"pitch":56,"time":379,"duration":1,"velocity":50},{"pitch":65,"time":380.5,"duration":0.25,"velocity":50},{"pitch":56,"time":381,"duration":0.25,"velocity":50},{"pitch":60,"time":382,"duration":0.25,"velocity":50},{"pitch":62,"time":383,"duration":0.25,"velocity":50},{"pitch":36,"velocity":120,"time":384,"duration":0.7272727272727273,"channel":9},{"pitch":56,"time":384,"duration":0.25,"velocity":50},{"pitch":60,"time":385,"duration":0.5,"velocity":50},{"pitch":42,"velocity":60,"time":385.45454545454544,"duration":0.7272727272727273,"channel":9},{"pitch":64,"time":385.5,"duration":0.5,"velocity":65},{"pitch":60,"time":386,"duration":0.5,"velocity":50},{"pitch":56,"time":386.5,"duration":2,"velocity":65},{"pitch":38,"velocity":90,"time":388,"duration":0.7272727272727273,"channel":9},{"pitch":56,"time":389,"duration":1,"velocity":50},{"pitch":42,"velocity":60,"time":389.45454545454544,"duration":0.7272727272727273,"channel":9},{"pitch":60,"time":390,"duration":0.25,"velocity":50},{"pitch":42,"velocity":20,"time":390.1818181818182,"duration":0.7272727272727273,"channel":9},{"pitch":64,"time":390.5,"duration":0.25,"velocity":50},{"pitch":36,"velocity":120,"time":390.90909090909093,"duration":1.8181818181818183,"channel":9},{"pitch":60,"time":391,"duration":0.25,"velocity":50},{"pitch":38,"velocity":90,"time":396,"duration":0.7272727272727273,"channel":9},{"pitch":42,"velocity":60,"time":397.8181818181818,"duration":1.4545454545454546,"channel":9},{"pitch":56,"time":400,"duration":1,"velocity":65},{"pitch":42,"velocity":20,"time":400.72727272727275,"duration":0.7272727272727273,"channel":9},{"pitch":60,"time":401,"duration":0.25,"velocity":50},{"pitch":42,"velocity":60,"time":401.45454545454544,"duration":0.7272727272727273,"channel":9},{"pitch":64,"time":401.5,"duration":0.25,"velocity":50},{"pitch":56,"time":402,"duration":1,"velocity":50},{"pitch":60,"time":403,"duration":0.25,"velocity":50},{"pitch":64,"time":403.5,"duration":0.25,"velocity":50},{"pitch":38,"velocity":90,"time":404,"duration":0.7272727272727273,"channel":9},{"pitch":60,"time":404,"duration":0.25,"velocity":50},{"pitch":52,"time":406.5,"duration":2,"velocity":50},{"pitch":36,"velocity":120,"time":406.9090909090909,"duration":1.8181818181818183,"channel":9},{"pitch":56,"time":407,"duration":1,"velocity":50},{"pitch":42,"velocity":20,"time":408.72727272727275,"duration":1.0909090909090908,"channel":9},{"pitch":42,"velocity":60,"time":409.8181818181818,"duration":1.4545454545454546,"channel":9},{"pitch":64,"time":410.5,"duration":0.5,"velocity":65},{"pitch":36,"velocity":120,"time":416,"duration":0.7272727272727273,"channel":9},{"pitch":42,"velocity":60,"time":417.45454545454544,"duration":0.7272727272727273,"channel":9},{"pitch":56,"time":418,"duration":1,"velocity":50},{"pitch":38,"velocity":90,"time":420,"duration":0.7272727272727273,"channel":9},{"pitch":65,"time":421,"duration":0.5,"velocity":65},{"pitch":42,"velocity":60,"time":421.45454545454544,"duration":0.7272727272727273,"channel":9},{"pitch":64,"time":421.5,"duration":0.5,"velocity":50},{"pitch":60,"time":422,"duration":0.5,"velocity":50},{"pitch":42,"velocity":20,"time":422.1818181818182,"duration":0.7272727272727273,"channel":9},{"pitch":36,"velocity":120,"time":422.90909090909093,"duration":1.8181818181818183,"channel":9},{"pitch":60,"time":425,"duration":0.25,"velocity":50},{"pitch":60,"time":426,"duration":0.25,"velocity":50},{"pitch":70,"time":426.5,"duration":0.25,"velocity":65},{"pitch":61,"time":427,"duration":0.25,"velocity":50},{"pitch":38,"velocity":90,"time":428,"duration":0.7272727272727273,"channel":9},{"pitch":64,"time":428.5,"duration":0.5,"velocity":50},{"pitch":42,"velocity":60,"time":429.8181818181818,"duration":1.4545454545454546,"channel":9},{"pitch":61,"time":431.5,"duration":2,"velocity":65},{"pitch":42,"velocity":20,"time":432.72727272727275,"duration":0.7272727272727273,"channel":9},{"pitch":42,"velocity":60,"time":433.45454545454544,"duration":0.7272727272727273,"channel":9},{"pitch":52,"time":433.5,"duration":0.25,"velocity":50},{"pitch":61,"time":434,"duration":0.25,"velocity":50},{"pitch":60,"time":435,"duration":0.25,"velocity":65},{"pitch":38,"velocity":90,"time":436,"duration":0.7272727272727273,"channel":9},{"pitch":56,"time":438,"duration":0.25,"velocity":65},{"pitch":36,"velocity":120,"time":438.9090909090909,"duration":1.8181818181818183,"channel":9},{"pitch":60,"time":440,"duration":0.25,"velocity":50},{"pitch":56,"time":440.5,"duration":2,"velocity":50},{"pitch":42,"velocity":20,"time":440.72727272727275,"duration":1.0909090909090908,"channel":9},{"pitch":42,"velocity":60,"time":441.8181818181818,"duration":1.4545454545454546,"channel":9},{"pitch":56,"time":443,"duration":1,"velocity":50},{"pitch":64,"time":444.5,"duration":0.25,"velocity":50},{"pitch":56,"time":445,"duration":0.25,"velocity":50},{"pitch":60,"time":446,"duration":0.25,"velocity":50},{"pitch":56,"time":447,"duration":0.25,"velocity":50},{"pitch":36,"velocity":120,"time":448,"duration":0.7272727272727273,"channel":9},{"pitch":56,"time":448,"duration":0.25,"velocity":50},{"pitch":60,"time":449,"duration":0.5,"velocity":50},{"pitch":42,"velocity":60,"time":449.45454545454544,"duration":0.7272727272727273,"channel":9},{"pitch":64,"time":449.5,"duration":0.5,"velocity":65},{"pitch":60,"time":450,"duration":0.5,"velocity":50},{"pitch":56,"time":450.5,"duration":2,"velocity":65},{"pitch":38,"velocity":90,"time":452,"duration":0.7272727272727273,"channel":9},{"pitch":56,"time":453,"duration":1,"velocity":50},{"pitch":42,"velocity":60,"time":453.45454545454544,"duration":0.7272727272727273,"channel":9},{"pitch":60,"time":454,"duration":0.25,"velocity":50},{"pitch":42,"velocity":20,"time":454.1818181818182,"duration":0.7272727272727273,"channel":9},{"pitch":64,"time":454.5,"duration":0.25,"velocity":50},{"pitch":36,"velocity":120,"time":454.90909090909093,"duration":1.8181818181818183,"channel":9},{"pitch":56,"time":455,"duration":0.25,"velocity":50},{"pitch":38,"velocity":90,"time":460,"duration":0.7272727272727273,"channel":9},{"pitch":42,"velocity":60,"time":461.8181818181818,"duration":1.4545454545454546,"channel":9},{"pitch":62,"time":464,"duration":1,"velocity":65},{"pitch":42,"velocity":20,"time":464.72727272727275,"duration":0.7272727272727273,"channel":9},{"pitch":60,"time":465,"duration":0.25,"velocity":50},{"pitch":42,"velocity":60,"time":465.45454545454544,"duration":0.7272727272727273,"channel":9},{"pitch":65,"time":465.5,"duration":0.25,"velocity":50},{"pitch":56,"time":466,"duration":1,"velocity":50},{"pitch":64,"time":467,"duration":0.25,"velocity":50},{"pitch":63,"time":467.5,"duration":0.25,"velocity":50},{"pitch":38,"velocity":90,"time":468,"duration":0.7272727272727273,"channel":9},{"pitch":60,"time":468,"duration":0.25,"velocity":50},{"pitch":52,"time":470.5,"duration":2,"velocity":50},{"pitch":36,"velocity":120,"time":470.9090909090909,"duration":1.8181818181818183,"channel":9},{"pitch":62,"time":471,"duration":1,"velocity":50},{"pitch":42,"velocity":20,"time":472.72727272727275,"duration":1.0909090909090908,"channel":9},{"pitch":42,"velocity":60,"time":473.8181818181818,"duration":1.4545454545454546,"channel":9},{"pitch":64,"time":474.5,"duration":0.5,"velocity":65},{"pitch":36,"velocity":120,"time":480,"duration":0.7272727272727273,"channel":9},{"pitch":42,"velocity":60,"time":481.45454545454544,"duration":0.7272727272727273,"channel":9},{"pitch":56,"time":482,"duration":1,"velocity":50},{"pitch":38,"velocity":90,"time":484,"duration":0.7272727272727273,"channel":9},{"pitch":60,"time":485,"duration":0.5,"velocity":65},{"pitch":42,"velocity":60,"time":485.45454545454544,"duration":0.7272727272727273,"channel":9},{"pitch":64,"time":485.5,"duration":0.5,"velocity":50},{"pitch":60,"time":486,"duration":0.5,"velocity":50},{"pitch":42,"velocity":20,"time":486.1818181818182,"duration":0.7272727272727273,"channel":9},{"pitch":36,"velocity":120,"time":486.90909090909093,"duration":1.8181818181818183,"channel":9},{"pitch":56,"time":489,"duration":0.25,"velocity":50},{"pitch":60,"time":490,"duration":0.25,"velocity":50},{"pitch":64,"time":490.5,"duration":0.25,"velocity":65},{"pitch":56,"time":491,"duration":0.25,"velocity":50},{"pitch":38,"velocity":90,"time":492,"duration":0.7272727272727273,"channel":9},{"pitch":64,"time":492.5,"duration":0.5,"velocity":50},{"pitch":42,"velocity":60,"time":493.8181818181818,"duration":1.4545454545454546,"channel":9},{"pitch":56,"time":495.5,"duration":2,"velocity":65},{"pitch":42,"velocity":20,"time":496.72727272727275,"duration":0.7272727272727273,"channel":9},{"pitch":42,"velocity":60,"time":497.45454545454544,"duration":0.7272727272727273,"channel":9},{"pitch":52,"time":497.5,"duration":0.25,"velocity":50},{"pitch":56,"time":498,"duration":0.25,"velocity":50},{"pitch":60,"time":499,"duration":0.25,"velocity":65},{"pitch":38,"velocity":90,"time":500,"duration":0.7272727272727273,"channel":9},{"pitch":61,"time":502,"duration":0.25,"velocity":65},{"pitch":36,"velocity":120,"time":502.9090909090909,"duration":1.8181818181818183,"channel":9},{"pitch":60,"time":504,"duration":0.25,"velocity":50},{"pitch":60,"time":504.5,"duration":2,"velocity":50},{"pitch":42,"velocity":20,"time":504.72727272727275,"duration":1.0909090909090908,"channel":9},{"pitch":42,"velocity":60,"time":505.8181818181818,"duration":1.4545454545454546,"channel":9},{"pitch":60,"time":507,"duration":1,"velocity":50},{"pitch":64,"time":508.5,"duration":0.25,"velocity":50},{"pitch":56,"time":509,"duration":0.25,"velocity":50},{"pitch":65,"time":510,"duration":0.25,"velocity":50},{"pitch":59,"time":511,"duration":0.25,"velocity":50},{"pitch":36,"velocity":120,"time":512,"duration":0.7272727272727273,"channel":9},{"pitch":61,"time":512,"duration":0.25,"velocity":50},{"pitch":60,"time":513,"duration":0.5,"velocity":50},{"pitch":42,"velocity":60,"time":513.4545454545455,"duration":0.7272727272727273,"channel":9},{"pitch":65,"time":513.5,"duration":0.5,"velocity":65},{"pitch":60,"time":514,"duration":0.5,"velocity":50},{"pitch":56,"time":514.5,"duration":2,"velocity":65},{"pitch":38,"velocity":90,"time":516,"duration":0.7272727272727273,"channel":9},{"pitch":61,"time":517,"duration":1,"velocity":50},{"pitch":42,"velocity":60,"time":517.4545454545455,"duration":0.7272727272727273,"channel":9},{"pitch":60,"time":518,"duration":0.25,"velocity":50},{"pitch":42,"velocity":20,"time":518.1818181818181,"duration":0.7272727272727273,"channel":9},{"pitch":69,"time":518.5,"duration":0.25,"velocity":50},{"pitch":36,"velocity":120,"time":518.9090909090909,"duration":1.8181818181818183,"channel":9},{"pitch":62,"time":519,"duration":0.25,"velocity":50},{"pitch":38,"velocity":90,"time":524,"duration":0.7272727272727273,"channel":9},{"pitch":42,"velocity":60,"time":525.8181818181819,"duration":1.4545454545454546,"channel":9},{"pitch":56,"time":528,"duration":1,"velocity":65},{"pitch":42,"velocity":20,"time":528.7272727272727,"duration":0.7272727272727273,"channel":9},{"pitch":60,"time":529,"duration":0.25,"velocity":50},{"pitch":42,"velocity":60,"time":529.4545454545455,"duration":0.7272727272727273,"channel":9},{"pitch":64,"time":529.5,"duration":0.25,"velocity":50},{"pitch":56,"time":530,"duration":1,"velocity":50},{"pitch":60,"time":531,"duration":0.25,"velocity":50},{"pitch":64,"time":531.5,"duration":0.25,"velocity":50},{"pitch":38,"velocity":90,"time":532,"duration":0.7272727272727273,"channel":9},{"pitch":60,"time":532,"duration":0.25,"velocity":50},{"pitch":52,"time":534.5,"duration":2,"velocity":50},{"pitch":36,"velocity":120,"time":534.9090909090909,"duration":1.8181818181818183,"channel":9},{"pitch":56,"time":535,"duration":1,"velocity":50},{"pitch":42,"velocity":20,"time":536.7272727272727,"duration":1.0909090909090908,"channel":9},{"pitch":42,"velocity":60,"time":537.8181818181819,"duration":1.4545454545454546,"channel":9},{"pitch":64,"time":538.5,"duration":0.5,"velocity":65},{"pitch":36,"velocity":120,"time":544,"duration":0.7272727272727273,"channel":9},{"pitch":42,"velocity":60,"time":545.4545454545455,"duration":0.7272727272727273,"channel":9},{"pitch":61,"time":546,"duration":1,"velocity":50},{"pitch":38,"velocity":90,"time":548,"duration":0.7272727272727273,"channel":9},{"pitch":60,"time":549,"duration":0.5,"velocity":65},{"pitch":42,"velocity":60,"time":549.4545454545455,"duration":0.7272727272727273,"channel":9},{"pitch":64,"time":549.5,"duration":0.5,"velocity":50},{"pitch":60,"time":550,"duration":0.5,"velocity":50},{"pitch":42,"velocity":20,"time":550.1818181818181,"duration":0.7272727272727273,"channel":9},{"pitch":36,"velocity":120,"time":550.9090909090909,"duration":1.8181818181818183,"channel":9},{"pitch":63,"time":553,"duration":0.25,"velocity":50},{"pitch":64,"time":554,"duration":0.25,"velocity":50},{"pitch":65,"time":554.5,"duration":0.25,"velocity":65},{"pitch":61,"time":555,"duration":0.25,"velocity":50},{"pitch":38,"velocity":90,"time":556,"duration":0.7272727272727273,"channel":9},{"pitch":64,"time":556.5,"duration":0.5,"velocity":50},{"pitch":42,"velocity":60,"time":557.8181818181819,"duration":1.4545454545454546,"channel":9},{"pitch":60,"time":559.5,"duration":2,"velocity":65},{"pitch":42,"velocity":20,"time":560.7272727272727,"duration":0.7272727272727273,"channel":9},{"pitch":42,"velocity":60,"time":561.4545454545455,"duration":0.7272727272727273,"channel":9},{"pitch":51,"time":561.5,"duration":0.25,"velocity":50},{"pitch":56,"time":562,"duration":0.25,"velocity":50},{"pitch":61,"time":563,"duration":0.25,"velocity":65},{"pitch":38,"velocity":90,"time":564,"duration":0.7272727272727273,"channel":9},{"pitch":56,"time":566,"duration":0.25,"velocity":65},{"pitch":36,"velocity":120,"time":566.9090909090909,"duration":1.8181818181818183,"channel":9},{"pitch":60,"time":568,"duration":0.25,"velocity":50},{"pitch":56,"time":568.5,"duration":2,"velocity":50},{"pitch":42,"velocity":20,"time":568.7272727272727,"duration":1.0909090909090908,"channel":9},{"pitch":42,"velocity":60,"time":569.8181818181819,"duration":1.4545454545454546,"channel":9},{"pitch":56,"time":571,"duration":1,"velocity":50},{"pitch":65,"time":572.5,"duration":0.25,"velocity":50},{"pitch":56,"time":573,"duration":0.25,"velocity":50},{"pitch":61,"time":574,"duration":0.25,"velocity":50},{"pitch":56,"time":575,"duration":0.25,"velocity":50},{"pitch":36,"velocity":120,"time":576,"duration":0.7272727272727273,"channel":9},{"pitch":56,"time":576,"duration":0.25,"velocity":50},{"pitch":60,"time":577,"duration":0.5,"velocity":50},{"pitch":42,"velocity":60,"time":577.4545454545455,"duration":0.7272727272727273,"channel":9},{"pitch":64,"time":577.5,"duration":0.5,"velocity":65},{"pitch":60,"time":578,"duration":0.5,"velocity":50},{"pitch":56,"time":578.5,"duration":2,"velocity":65},{"pitch":38,"velocity":90,"time":580,"duration":0.7272727272727273,"channel":9},{"pitch":56,"time":581,"duration":1,"velocity":50},{"pitch":42,"velocity":60,"time":581.4545454545455,"duration":0.7272727272727273,"channel":9},{"pitch":60,"time":582,"duration":0.25,"velocity":50},{"pitch":42,"velocity":20,"time":582.1818181818181,"duration":0.7272727272727273,"channel":9},{"pitch":64,"time":582.5,"duration":0.25,"velocity":50},{"pitch":36,"velocity":120,"time":582.9090909090909,"duration":1.8181818181818183,"channel":9},{"pitch":56,"time":583,"duration":0.25,"velocity":50},{"pitch":38,"velocity":90,"time":588,"duration":0.7272727272727273,"channel":9},{"pitch":42,"velocity":60,"time":589.8181818181819,"duration":1.4545454545454546,"channel":9},{"pitch":56,"time":592,"duration":1,"velocity":65},{"pitch":42,"velocity":20,"time":592.7272727272727,"duration":0.7272727272727273,"channel":9},{"pitch":64,"time":593,"duration":0.25,"velocity":50},{"pitch":42,"velocity":60,"time":593.4545454545455,"duration":0.7272727272727273,"channel":9},{"pitch":70,"time":593.5,"duration":0.25,"velocity":50},{"pitch":56,"time":594,"duration":1,"velocity":50},{"pitch":60,"time":595,"duration":0.25,"velocity":50},{"pitch":70,"time":595.5,"duration":0.25,"velocity":50},{"pitch":38,"velocity":90,"time":596,"duration":0.7272727272727273,"channel":9},{"pitch":60,"time":596,"duration":0.25,"velocity":50},{"pitch":57,"time":598.5,"duration":2,"velocity":50},{"pitch":36,"velocity":120,"time":598.9090909090909,"duration":1.8181818181818183,"channel":9},{"pitch":56,"time":599,"duration":1,"velocity":50},{"pitch":42,"velocity":20,"time":600.7272727272727,"duration":1.0909090909090908,"channel":9},{"pitch":42,"velocity":60,"time":601.8181818181819,"duration":1.4545454545454546,"channel":9},{"pitch":64,"time":602.5,"duration":0.5,"velocity":65},{"pitch":36,"velocity":120,"time":608,"duration":0.7272727272727273,"channel":9},{"pitch":42,"velocity":60,"time":609.4545454545455,"duration":0.7272727272727273,"channel":9},{"pitch":55,"time":610,"duration":1,"velocity":50},{"pitch":38,"velocity":90,"time":612,"duration":0.7272727272727273,"channel":9},{"pitch":60,"time":613,"duration":0.5,"velocity":65},{"pitch":42,"velocity":60,"time":613.4545454545455,"duration":0.7272727272727273,"channel":9},{"pitch":64,"time":613.5,"duration":0.5,"velocity":50},{"pitch":60,"time":614,"duration":0.5,"velocity":50},{"pitch":42,"velocity":20,"time":614.1818181818181,"duration":0.7272727272727273,"channel":9},{"pitch":36,"velocity":120,"time":614.9090909090909,"duration":1.8181818181818183,"channel":9},{"pitch":56,"time":617,"duration":0.25,"velocity":50},{"pitch":60,"time":618,"duration":0.25,"velocity":50},{"pitch":64,"time":618.5,"duration":0.25,"velocity":65},{"pitch":56,"time":619,"duration":0.25,"velocity":50},{"pitch":38,"velocity":90,"time":620,"duration":0.7272727272727273,"channel":9},{"pitch":70,"time":620.5,"duration":0.5,"velocity":50},{"pitch":42,"velocity":60,"time":621.8181818181819,"duration":1.4545454545454546,"channel":9},{"pitch":61,"time":623.5,"duration":2,"velocity":65},{"pitch":42,"velocity":20,"time":624.7272727272727,"duration":0.7272727272727273,"channel":9},{"pitch":42,"velocity":60,"time":625.4545454545455,"duration":0.7272727272727273,"channel":9},{"pitch":52,"time":625.5,"duration":0.25,"velocity":50},{"pitch":56,"time":626,"duration":0.25,"velocity":50},{"pitch":64,"time":627,"duration":0.25,"velocity":65},{"pitch":38,"velocity":90,"time":628,"duration":0.7272727272727273,"channel":9},{"pitch":61,"time":630,"duration":0.25,"velocity":65},{"pitch":36,"velocity":120,"time":630.9090909090909,"duration":1.8181818181818183,"channel":9},{"pitch":64,"time":632,"duration":0.25,"velocity":50},{"pitch":56,"time":632.5,"duration":2,"velocity":50},{"pitch":42,"velocity":20,"time":632.7272727272727,"duration":1.0909090909090908,"channel":9},{"pitch":42,"velocity":60,"time":633.8181818181819,"duration":1.4545454545454546,"channel":9},{"pitch":61,"time":635,"duration":1,"velocity":50},{"pitch":64,"time":636.5,"duration":0.25,"velocity":50},{"pitch":62,"time":637,"duration":0.25,"velocity":50},{"pitch":60,"time":638,"duration":0.25,"velocity":50},{"pitch":56,"time":639,"duration":0.25,"velocity":50},{"pitch":36,"velocity":120,"time":640,"duration":0.7272727272727273,"channel":9},{"pitch":56,"time":640,"duration":0.25,"velocity":50},{"pitch":60,"time":641,"duration":0.5,"velocity":50},{"pitch":42,"velocity":60,"time":641.4545454545455,"duration":0.7272727272727273,"channel":9},{"pitch":64,"time":641.5,"duration":0.5,"velocity":65},{"pitch":60,"time":642,"duration":0.5,"velocity":50},{"pitch":56,"time":642.5,"duration":2,"velocity":65},{"pitch":38,"velocity":90,"time":644,"duration":0.7272727272727273,"channel":9},{"pitch":56,"time":645,"duration":1,"velocity":50},{"pitch":42,"velocity":60,"time":645.4545454545455,"duration":0.7272727272727273,"channel":9},{"pitch":60,"time":646,"duration":0.25,"velocity":50},{"pitch":42,"velocity":20,"time":646.1818181818181,"duration":0.7272727272727273,"channel":9},{"pitch":64,"time":646.5,"duration":0.25,"velocity":50},{"pitch":36,"velocity":120,"time":646.9090909090909,"duration":1.8181818181818183,"channel":9},{"pitch":56,"time":647,"duration":0.25,"velocity":50},{"pitch":38,"velocity":90,"time":652,"duration":0.7272727272727273,"channel":9},{"pitch":42,"velocity":60,"time":653.8181818181819,"duration":1.4545454545454546,"channel":9},{"pitch":56,"time":656,"duration":1,"velocity":65},{"pitch":42,"velocity":20,"time":656.7272727272727,"duration":0.7272727272727273,"channel":9},{"pitch":60,"time":657,"duration":0.25,"velocity":50},{"pitch":42,"velocity":60,"time":657.4545454545455,"duration":0.7272727272727273,"channel":9},{"pitch":64,"time":657.5,"duration":0.25,"velocity":50},{"pitch":57,"time":658,"duration":1,"velocity":50},{"pitch":60,"time":659,"duration":0.25,"velocity":50},{"pitch":65,"time":659.5,"duration":0.25,"velocity":50},{"pitch":38,"velocity":90,"time":660,"duration":0.7272727272727273,"channel":9},{"pitch":60,"time":660,"duration":0.25,"velocity":50},{"pitch":52,"time":662.5,"duration":2,"velocity":50},{"pitch":36,"velocity":120,"time":662.9090909090909,"duration":1.8181818181818183,"channel":9},{"pitch":56,"time":663,"duration":1,"velocity":50},{"pitch":42,"velocity":20,"time":664.7272727272727,"duration":1.0909090909090908,"channel":9},{"pitch":42,"velocity":60,"time":665.8181818181819,"duration":1.4545454545454546,"channel":9},{"pitch":64,"time":666.5,"duration":0.5,"velocity":65},{"pitch":36,"velocity":120,"time":672,"duration":0.7272727272727273,"channel":9},{"pitch":42,"velocity":60,"time":673.4545454545455,"duration":0.7272727272727273,"channel":9},{"pitch":62,"time":674,"duration":1,"velocity":50},{"pitch":38,"velocity":90,"time":676,"duration":0.7272727272727273,"channel":9},{"pitch":60,"time":677,"duration":0.5,"velocity":65},{"pitch":42,"velocity":60,"time":677.4545454545455,"duration":0.7272727272727273,"channel":9},{"pitch":68,"time":677.5,"duration":0.5,"velocity":50},{"pitch":66,"time":678,"duration":0.5,"velocity":50},{"pitch":42,"velocity":20,"time":678.1818181818181,"duration":0.7272727272727273,"channel":9},{"pitch":36,"velocity":120,"time":678.9090909090909,"duration":1.8181818181818183,"channel":9},{"pitch":56,"time":681,"duration":0.25,"velocity":50},{"pitch":60,"time":682,"duration":0.25,"velocity":50},{"pitch":64,"time":682.5,"duration":0.25,"velocity":65},{"pitch":56,"time":683,"duration":0.25,"velocity":50},{"pitch":38,"velocity":90,"time":684,"duration":0.7272727272727273,"channel":9},{"pitch":64,"time":684.5,"duration":0.5,"velocity":50},{"pitch":42,"velocity":60,"time":685.8181818181819,"duration":1.4545454545454546,"channel":9},{"pitch":56,"time":687.5,"duration":2,"velocity":65},{"pitch":42,"velocity":20,"time":688.7272727272727,"duration":0.7272727272727273,"channel":9},{"pitch":42,"velocity":60,"time":689.4545454545455,"duration":0.7272727272727273,"channel":9},{"pitch":52,"time":689.5,"duration":0.25,"velocity":50},{"pitch":56,"time":690,"duration":0.25,"velocity":50},{"pitch":60,"time":691,"duration":0.25,"velocity":65},{"pitch":38,"velocity":90,"time":692,"duration":0.7272727272727273,"channel":9},{"pitch":56,"time":694,"duration":0.25,"velocity":65},{"pitch":36,"velocity":120,"time":694.9090909090909,"duration":1.8181818181818183,"channel":9},{"pitch":60,"time":696,"duration":0.25,"velocity":50},{"pitch":56,"time":696.5,"duration":2,"velocity":50},{"pitch":42,"velocity":20,"time":696.7272727272727,"duration":1.0909090909090908,"channel":9},{"pitch":42,"velocity":60,"time":697.8181818181819,"duration":1.4545454545454546,"channel":9},{"pitch":56,"time":699,"duration":1,"velocity":50},{"pitch":64,"time":700.5,"duration":0.25,"velocity":50},{"pitch":56,"time":701,"duration":0.25,"velocity":50},{"pitch":64,"time":702,"duration":0.25,"velocity":50},{"pitch":62,"time":703,"duration":0.25,"velocity":50},{"pitch":36,"velocity":120,"time":704,"duration":0.7272727272727273,"channel":9},{"pitch":56,"time":704,"duration":0.25,"velocity":50},{"pitch":59,"time":705,"duration":0.5,"velocity":50},{"pitch":42,"velocity":60,"time":705.4545454545455,"duration":0.7272727272727273,"channel":9},{"pitch":68,"time":705.5,"duration":0.5,"velocity":65},{"pitch":64,"time":706,"duration":0.5,"velocity":50},{"pitch":61,"time":706.5,"duration":2,"velocity":65},{"pitch":38,"velocity":90,"time":708,"duration":0.7272727272727273,"channel":9},{"pitch":57,"time":709,"duration":1,"velocity":50},{"pitch":42,"velocity":60,"time":709.4545454545455,"duration":0.7272727272727273,"channel":9},{"pitch":64,"time":710,"duration":0.25,"velocity":50},{"pitch":42,"velocity":20,"time":710.1818181818181,"duration":0.7272727272727273,"channel":9},{"pitch":64,"time":710.5,"duration":0.25,"velocity":50},{"pitch":36,"velocity":120,"time":710.9090909090909,"duration":1.8181818181818183,"channel":9},{"pitch":61,"time":711,"duration":0.25,"velocity":50},{"pitch":38,"velocity":90,"time":716,"duration":0.7272727272727273,"channel":9},{"pitch":42,"velocity":60,"time":717.8181818181819,"duration":1.4545454545454546,"channel":9},{"pitch":56,"time":720,"duration":1,"velocity":65},{"pitch":42,"velocity":20,"time":720.7272727272727,"duration":0.7272727272727273,"channel":9},{"pitch":60,"time":721,"duration":0.25,"velocity":50},{"pitch":42,"velocity":60,"time":721.4545454545455,"duration":0.7272727272727273,"channel":9},{"pitch":64,"time":721.5,"duration":0.25,"velocity":50},{"pitch":56,"time":722,"duration":1,"velocity":50},{"pitch":60,"time":723,"duration":0.25,"velocity":50},{"pitch":64,"time":723.5,"duration":0.25,"velocity":50},{"pitch":38,"velocity":90,"time":724,"duration":0.7272727272727273,"channel":9},{"pitch":60,"time":724,"duration":0.25,"velocity":50},{"pitch":52,"time":726.5,"duration":2,"velocity":50},{"pitch":36,"velocity":120,"time":726.9090909090909,"duration":1.8181818181818183,"channel":9},{"pitch":56,"time":727,"duration":1,"velocity":50},{"pitch":42,"velocity":20,"time":728.7272727272727,"duration":1.0909090909090908,"channel":9},{"pitch":42,"velocity":60,"time":729.8181818181819,"duration":1.4545454545454546,"channel":9},{"pitch":64,"time":730.5,"duration":0.5,"velocity":65},{"pitch":36,"velocity":120,"time":736,"duration":0.7272727272727273,"channel":9},{"pitch":42,"velocity":60,"time":737.4545454545455,"duration":0.7272727272727273,"channel":9},{"pitch":56,"time":738,"duration":1,"velocity":50},{"pitch":38,"velocity":90,"time":740,"duration":0.7272727272727273,"channel":9},{"pitch":65,"time":741,"duration":0.5,"velocity":65},{"pitch":42,"velocity":60,"time":741.4545454545455,"duration":0.7272727272727273,"channel":9},{"pitch":64,"time":741.5,"duration":0.5,"velocity":50},{"pitch":65,"time":742,"duration":0.5,"velocity":50},{"pitch":42,"velocity":20,"time":742.1818181818181,"duration":0.7272727272727273,"channel":9},{"pitch":36,"velocity":120,"time":742.9090909090909,"duration":1.8181818181818183,"channel":9},{"pitch":55,"time":745,"duration":0.25,"velocity":50},{"pitch":60,"time":746,"duration":0.25,"velocity":50},{"pitch":69,"time":746.5,"duration":0.25,"velocity":65},{"pitch":57,"time":747,"duration":0.25,"velocity":50},{"pitch":38,"velocity":90,"time":748,"duration":0.7272727272727273,"channel":9},{"pitch":64,"time":748.5,"duration":0.5,"velocity":50},{"pitch":42,"velocity":60,"time":749.8181818181819,"duration":1.4545454545454546,"channel":9},{"pitch":56,"time":751.5,"duration":2,"velocity":65},{"pitch":42,"velocity":20,"time":752.7272727272727,"duration":0.7272727272727273,"channel":9},{"pitch":42,"velocity":60,"time":753.4545454545455,"duration":0.7272727272727273,"channel":9},{"pitch":58,"time":753.5,"duration":0.25,"velocity":50},{"pitch":61,"time":754,"duration":0.25,"velocity":50},{"pitch":60,"time":755,"duration":0.25,"velocity":65},{"pitch":38,"velocity":90,"time":756,"duration":0.7272727272727273,"channel":9},{"pitch":56,"time":758,"duration":0.25,"velocity":65},{"pitch":36,"velocity":120,"time":758.9090909090909,"duration":1.8181818181818183,"channel":9},{"pitch":60,"time":760,"duration":0.25,"velocity":50},{"pitch":56,"time":760.5,"duration":2,"velocity":50},{"pitch":42,"velocity":20,"time":760.7272727272727,"duration":1.0909090909090908,"channel":9},{"pitch":42,"velocity":60,"time":761.8181818181819,"duration":1.4545454545454546,"channel":9},{"pitch":56,"time":763,"duration":1,"velocity":50},{"pitch":64,"time":764.5,"duration":0.25,"velocity":50},{"pitch":56,"time":765,"duration":0.25,"velocity":50},{"pitch":60,"time":766,"duration":0.25,"velocity":50},{"pitch":56,"time":767,"duration":0.25,"velocity":50},{"pitch":36,"velocity":120,"time":768,"duration":0.7272727272727273,"channel":9},{"pitch":56,"time":768,"duration":0.25,"velocity":50},{"pitch":60,"time":769,"duration":0.5,"velocity":50},{"pitch":42,"velocity":60,"time":769.4545454545455,"duration":0.7272727272727273,"channel":9},{"pitch":64,"time":769.5,"duration":0.5,"velocity":65},{"pitch":60,"time":770,"duration":0.5,"velocity":50},{"pitch":56,"time":770.5,"duration":2,"velocity":65},{"pitch":38,"velocity":90,"time":772,"duration":0.7272727272727273,"channel":9},{"pitch":56,"time":773,"duration":1,"velocity":50},{"pitch":42,"velocity":60,"time":773.4545454545455,"duration":0.7272727272727273,"channel":9},{"pitch":60,"time":774,"duration":0.25,"velocity":50},{"pitch":42,"velocity":20,"time":774.1818181818181,"duration":0.7272727272727273,"channel":9},{"pitch":64,"time":774.5,"duration":0.25,"velocity":50},{"pitch":36,"velocity":120,"time":774.9090909090909,"duration":1.8181818181818183,"channel":9},{"pitch":56,"time":775,"duration":0.25,"velocity":50},{"pitch":38,"velocity":90,"time":780,"duration":0.7272727272727273,"channel":9},{"pitch":42,"velocity":60,"time":781.8181818181819,"duration":1.4545454545454546,"channel":9},{"pitch":61,"time":784,"duration":1,"velocity":65},{"pitch":42,"velocity":20,"time":784.7272727272727,"duration":0.7272727272727273,"channel":9},{"pitch":60,"time":785,"duration":0.25,"velocity":50},{"pitch":42,"velocity":60,"time":785.4545454545455,"duration":0.7272727272727273,"channel":9},{"pitch":64,"time":785.5,"duration":0.25,"velocity":50},{"pitch":61,"time":786,"duration":1,"velocity":50},{"pitch":60,"time":787,"duration":0.25,"velocity":50},{"pitch":64,"time":787.5,"duration":0.25,"velocity":50},{"pitch":38,"velocity":90,"time":788,"duration":0.7272727272727273,"channel":9},{"pitch":60,"time":788,"duration":0.25,"velocity":50},{"pitch":52,"time":790.5,"duration":2,"velocity":50},{"pitch":36,"velocity":120,"time":790.9090909090909,"duration":1.8181818181818183,"channel":9},{"pitch":56,"time":791,"duration":1,"velocity":50},{"pitch":42,"velocity":20,"time":792.7272727272727,"duration":1.0909090909090908,"channel":9},{"pitch":42,"velocity":60,"time":793.8181818181819,"duration":1.4545454545454546,"channel":9},{"pitch":64,"time":794.5,"duration":0.5,"velocity":65},{"pitch":36,"velocity":120,"time":800,"duration":0.7272727272727273,"channel":9},{"pitch":42,"velocity":60,"time":801.4545454545455,"duration":0.7272727272727273,"channel":9},{"pitch":57,"time":802,"duration":1,"velocity":50},{"pitch":38,"velocity":90,"time":804,"duration":0.7272727272727273,"channel":9},{"pitch":60,"time":805,"duration":0.5,"velocity":65},{"pitch":42,"velocity":60,"time":805.4545454545455,"duration":0.7272727272727273,"channel":9},{"pitch":64,"time":805.5,"duration":0.5,"velocity":50},{"pitch":61,"time":806,"duration":0.5,"velocity":50},{"pitch":42,"velocity":20,"time":806.1818181818181,"duration":0.7272727272727273,"channel":9},{"pitch":36,"velocity":120,"time":806.9090909090909,"duration":1.8181818181818183,"channel":9},{"pitch":56,"time":809,"duration":0.25,"velocity":50},{"pitch":60,"time":810,"duration":0.25,"velocity":50},{"pitch":63,"time":810.5,"duration":0.25,"velocity":65},{"pitch":55,"time":811,"duration":0.25,"velocity":50},{"pitch":38,"velocity":90,"time":812,"duration":0.7272727272727273,"channel":9},{"pitch":64,"time":812.5,"duration":0.5,"velocity":50},{"pitch":42,"velocity":60,"time":813.8181818181819,"duration":1.4545454545454546,"channel":9},{"pitch":56,"time":815.5,"duration":2,"velocity":65},{"pitch":42,"velocity":20,"time":816.7272727272727,"duration":0.7272727272727273,"channel":9},{"pitch":42,"velocity":60,"time":817.4545454545455,"duration":0.7272727272727273,"channel":9},{"pitch":52,"time":817.5,"duration":0.25,"velocity":50},{"pitch":56,"time":818,"duration":0.25,"velocity":50},{"pitch":60,"time":819,"duration":0.25,"velocity":65},{"pitch":38,"velocity":90,"time":820,"duration":0.7272727272727273,"channel":9},{"pitch":56,"time":822,"duration":0.25,"velocity":65},{"pitch":36,"velocity":120,"time":822.9090909090909,"duration":1.8181818181818183,"channel":9},{"pitch":64,"time":824,"duration":0.25,"velocity":50},{"pitch":62,"time":824.5,"duration":2,"velocity":50},{"pitch":42,"velocity":20,"time":824.7272727272727,"duration":1.0909090909090908,"channel":9},{"pitch":42,"velocity":60,"time":825.8181818181819,"duration":1.4545454545454546,"channel":9},{"pitch":61,"time":827,"duration":1,"velocity":50},{"pitch":64,"time":828.5,"duration":0.25,"velocity":50},{"pitch":56,"time":829,"duration":0.25,"velocity":50},{"pitch":60,"time":830,"duration":0.25,"velocity":50},{"pitch":60,"time":831,"duration":0.25,"velocity":50},{"pitch":36,"velocity":120,"time":832,"duration":0.7272727272727273,"channel":9},{"pitch":61,"time":832,"duration":0.25,"velocity":50},{"pitch":60,"time":833,"duration":0.5,"velocity":50},{"pitch":42,"velocity":60,"time":833.4545454545455,"duration":0.7272727272727273,"channel":9},{"pitch":70,"time":833.5,"duration":0.5,"velocity":65},{"pitch":60,"time":834,"duration":0.5,"velocity":50},{"pitch":61,"time":834.5,"duration":2,"velocity":65},{"pitch":38,"velocity":90,"time":836,"duration":0.7272727272727273,"channel":9},{"pitch":56,"time":837,"duration":1,"velocity":50},{"pitch":42,"velocity":60,"time":837.4545454545455,"duration":0.7272727272727273,"channel":9},{"pitch":60,"time":838,"duration":0.25,"velocity":50},{"pitch":42,"velocity":20,"time":838.1818181818181,"duration":0.7272727272727273,"channel":9},{"pitch":64,"time":838.5,"duration":0.25,"velocity":50},{"pitch":36,"velocity":120,"time":838.9090909090909,"duration":1.8181818181818183,"channel":9},{"pitch":61,"time":839,"duration":0.25,"velocity":50},{"pitch":38,"velocity":90,"time":844,"duration":0.7272727272727273,"channel":9},{"pitch":42,"velocity":60,"time":845.8181818181819,"duration":1.4545454545454546,"channel":9},{"pitch":56,"time":848,"duration":1,"velocity":65},{"pitch":42,"velocity":20,"time":848.7272727272727,"duration":0.7272727272727273,"channel":9},{"pitch":60,"time":849,"duration":0.25,"velocity":50},{"pitch":42,"velocity":60,"time":849.4545454545455,"duration":0.7272727272727273,"channel":9},{"pitch":64,"time":849.5,"duration":0.25,"velocity":50},{"pitch":56,"time":850,"duration":1,"velocity":50},{"pitch":60,"time":851,"duration":0.25,"velocity":50},{"pitch":64,"time":851.5,"duration":0.25,"velocity":50},{"pitch":38,"velocity":90,"time":852,"duration":0.7272727272727273,"channel":9},{"pitch":60,"time":852,"duration":0.25,"velocity":50},{"pitch":52,"time":854.5,"duration":2,"velocity":50},{"pitch":36,"velocity":120,"time":854.9090909090909,"duration":1.8181818181818183,"channel":9},{"pitch":56,"time":855,"duration":1,"velocity":50},{"pitch":42,"velocity":20,"time":856.7272727272727,"duration":1.0909090909090908,"channel":9},{"pitch":42,"velocity":60,"time":857.8181818181819,"duration":1.4545454545454546,"channel":9},{"pitch":63,"time":858.5,"duration":0.5,"velocity":65},{"pitch":36,"velocity":120,"time":864,"duration":0.7272727272727273,"channel":9},{"pitch":42,"velocity":60,"time":865.4545454545455,"duration":0.7272727272727273,"channel":9},{"pitch":56,"time":866,"duration":1,"velocity":50},{"pitch":38,"velocity":90,"time":868,"duration":0.7272727272727273,"channel":9},{"pitch":60,"time":869,"duration":0.5,"velocity":65},{"pitch":42,"velocity":60,"time":869.4545454545455,"duration":0.7272727272727273,"channel":9},{"pitch":64,"time":869.5,"duration":0.5,"velocity":50},{"pitch":60,"time":870,"duration":0.5,"velocity":50},{"pitch":42,"velocity":20,"time":870.1818181818181,"duration":0.7272727272727273,"channel":9},{"pitch":36,"velocity":120,"time":870.9090909090909,"duration":1.8181818181818183,"channel":9},{"pitch":56,"time":873,"duration":0.25,"velocity":50},{"pitch":60,"time":874,"duration":0.25,"velocity":50},{"pitch":64,"time":874.5,"duration":0.25,"velocity":65},{"pitch":61,"time":875,"duration":0.25,"velocity":50},{"pitch":38,"velocity":90,"time":876,"duration":0.7272727272727273,"channel":9},{"pitch":69,"time":876.5,"duration":0.5,"velocity":50},{"pitch":42,"velocity":60,"time":877.8181818181819,"duration":1.4545454545454546,"channel":9},{"pitch":56,"time":879.5,"duration":2,"velocity":65},{"pitch":42,"velocity":20,"time":880.7272727272727,"duration":0.7272727272727273,"channel":9},{"pitch":42,"velocity":60,"time":881.4545454545455,"duration":0.7272727272727273,"channel":9},{"pitch":52,"time":881.5,"duration":0.25,"velocity":50},{"pitch":56,"time":882,"duration":0.25,"velocity":50},{"pitch":60,"time":883,"duration":0.25,"velocity":65},{"pitch":38,"velocity":90,"time":884,"duration":0.7272727272727273,"channel":9},{"pitch":56,"time":886,"duration":0.25,"velocity":65},{"pitch":36,"velocity":120,"time":886.9090909090909,"duration":1.8181818181818183,"channel":9},{"pitch":61,"time":888,"duration":0.25,"velocity":50},{"pitch":56,"time":888.5,"duration":2,"velocity":50},{"pitch":42,"velocity":20,"time":888.7272727272727,"duration":1.0909090909090908,"channel":9},{"pitch":42,"velocity":60,"time":889.8181818181819,"duration":1.4545454545454546,"channel":9},{"pitch":56,"time":891,"duration":1,"velocity":50},{"pitch":64,"time":892.5,"duration":0.25,"velocity":50},{"pitch":56,"time":893,"duration":0.25,"velocity":50},{"pitch":60,"time":894,"duration":0.25,"velocity":50},{"pitch":56,"time":895,"duration":0.25,"velocity":50},{"pitch":36,"velocity":120,"time":896,"duration":0.7272727272727273,"channel":9},{"pitch":56,"time":896,"duration":0.25,"velocity":50},{"pitch":60,"time":897,"duration":0.5,"velocity":50},{"pitch":42,"velocity":60,"time":897.4545454545455,"duration":0.7272727272727273,"channel":9},{"pitch":64,"time":897.5,"duration":0.5,"velocity":65},{"pitch":60,"time":898,"duration":0.5,"velocity":50},{"pitch":55,"time":898.5,"duration":2,"velocity":65},{"pitch":38,"velocity":90,"time":900,"duration":0.7272727272727273,"channel":9},{"pitch":62,"time":901,"duration":1,"velocity":50},{"pitch":42,"velocity":60,"time":901.4545454545455,"duration":0.7272727272727273,"channel":9},{"pitch":65,"time":902,"duration":0.25,"velocity":50},{"pitch":42,"velocity":20,"time":902.1818181818181,"duration":0.7272727272727273,"channel":9},{"pitch":64,"time":902.5,"duration":0.25,"velocity":50},{"pitch":36,"velocity":120,"time":902.9090909090909,"duration":1.8181818181818183,"channel":9},{"pitch":56,"time":903,"duration":0.25,"velocity":50},{"pitch":38,"velocity":90,"time":908,"duration":0.7272727272727273,"channel":9},{"pitch":42,"velocity":60,"time":909.8181818181819,"duration":1.4545454545454546,"channel":9},{"pitch":61,"time":912,"duration":1,"velocity":65},{"pitch":42,"velocity":20,"time":912.7272727272727,"duration":0.7272727272727273,"channel":9},{"pitch":60,"time":913,"duration":0.25,"velocity":50},{"pitch":42,"velocity":60,"time":913.4545454545455,"duration":0.7272727272727273,"channel":9},{"pitch":64,"time":913.5,"duration":0.25,"velocity":50},{"pitch":56,"time":914,"duration":1,"velocity":50},{"pitch":60,"time":915,"duration":0.25,"velocity":50},{"pitch":64,"time":915.5,"duration":0.25,"velocity":50},{"pitch":38,"velocity":90,"time":916,"duration":0.7272727272727273,"channel":9},{"pitch":65,"time":916,"duration":0.25,"velocity":50},{"pitch":52,"time":918.5,"duration":2,"velocity":50},{"pitch":36,"velocity":120,"time":918.9090909090909,"duration":1.8181818181818183,"channel":9},{"pitch":56,"time":919,"duration":1,"velocity":50},{"pitch":42,"velocity":20,"time":920.7272727272727,"duration":1.0909090909090908,"channel":9},{"pitch":42,"velocity":60,"time":921.8181818181819,"duration":1.4545454545454546,"channel":9},{"pitch":64,"time":922.5,"duration":0.5,"velocity":65},{"pitch":36,"velocity":120,"time":928,"duration":0.7272727272727273,"channel":9},{"pitch":42,"velocity":60,"time":929.4545454545455,"duration":0.7272727272727273,"channel":9},{"pitch":56,"time":930,"duration":1,"velocity":50},{"pitch":38,"velocity":90,"time":932,"duration":0.7272727272727273,"channel":9},{"pitch":60,"time":933,"duration":0.5,"velocity":65},{"pitch":42,"velocity":60,"time":933.4545454545455,"duration":0.7272727272727273,"channel":9},{"pitch":64,"time":933.5,"duration":0.5,"velocity":50},{"pitch":60,"time":934,"duration":0.5,"velocity":50},{"pitch":42,"velocity":20,"time":934.1818181818181,"duration":0.7272727272727273,"channel":9},{"pitch":36,"velocity":120,"time":934.9090909090909,"duration":1.8181818181818183,"channel":9},{"pitch":56,"time":937,"duration":0.25,"velocity":50},{"pitch":60,"time":938,"duration":0.25,"velocity":50},{"pitch":64,"time":938.5,"duration":0.25,"velocity":65},{"pitch":56,"time":939,"duration":0.25,"velocity":50},{"pitch":38,"velocity":90,"time":940,"duration":0.7272727272727273,"channel":9},{"pitch":64,"time":940.5,"duration":0.5,"velocity":50},{"pitch":42,"velocity":60,"time":941.8181818181819,"duration":1.4545454545454546,"channel":9},{"pitch":56,"time":943.5,"duration":2,"velocity":65},{"pitch":42,"velocity":20,"time":944.7272727272727,"duration":0.7272727272727273,"channel":9},{"pitch":42,"velocity":60,"time":945.4545454545455,"duration":0.7272727272727273,"channel":9},{"pitch":52,"time":945.5,"duration":0.25,"velocity":50},{"pitch":60,"time":946,"duration":0.25,"velocity":50},{"pitch":60,"time":947,"duration":0.25,"velocity":65},{"pitch":38,"velocity":90,"time":948,"duration":0.7272727272727273,"channel":9},{"pitch":63,"time":950,"duration":0.25,"velocity":65},{"pitch":36,"velocity":120,"time":950.9090909090909,"duration":1.8181818181818183,"channel":9},{"pitch":64,"time":952,"duration":0.25,"velocity":50},{"pitch":56,"time":952.5,"duration":2,"velocity":50},{"pitch":42,"velocity":20,"time":952.7272727272727,"duration":1.0909090909090908,"channel":9},{"pitch":42,"velocity":60,"time":953.8181818181819,"duration":1.4545454545454546,"channel":9},{"pitch":61,"time":955,"duration":1,"velocity":50},{"pitch":67,"time":956.5,"duration":0.25,"velocity":50},{"pitch":56,"time":957,"duration":0.25,"velocity":50},{"pitch":60,"time":958,"duration":0.25,"velocity":50},{"pitch":56,"time":959,"duration":0.25,"velocity":50},{"pitch":36,"velocity":120,"time":960,"duration":0.7272727272727273,"channel":9},{"pitch":56,"time":960,"duration":0.25,"velocity":50},{"pitch":60,"time":961,"duration":0.5,"velocity":50},{"pitch":42,"velocity":60,"time":961.4545454545455,"duration":0.7272727272727273,"channel":9},{"pitch":64,"time":961.5,"duration":0.5,"velocity":65},{"pitch":60,"time":962,"duration":0.5,"velocity":50},{"pitch":56,"time":962.5,"duration":2,"velocity":65},{"pitch":38,"velocity":90,"time":964,"duration":0.7272727272727273,"channel":9},{"pitch":56,"time":965,"duration":1,"velocity":50},{"pitch":42,"velocity":60,"time":965.4545454545455,"duration":0.7272727272727273,"channel":9},{"pitch":60,"time":966,"duration":0.25,"velocity":50},{"pitch":42,"velocity":20,"time":966.1818181818181,"duration":0.7272727272727273,"channel":9},{"pitch":64,"time":966.5,"duration":0.25,"velocity":50},{"pitch":36,"velocity":120,"time":966.9090909090909,"duration":1.8181818181818183,"channel":9},{"pitch":56,"time":967,"duration":0.25,"velocity":50},{"pitch":38,"velocity":90,"time":972,"duration":0.7272727272727273,"channel":9},{"pitch":42,"velocity":60,"time":973.8181818181819,"duration":1.4545454545454546,"channel":9},{"pitch":56,"time":976,"duration":1,"velocity":65},{"pitch":42,"velocity":20,"time":976.7272727272727,"duration":0.7272727272727273,"channel":9},{"pitch":60,"time":977,"duration":0.25,"velocity":50},{"pitch":42,"velocity":60,"time":977.4545454545455,"duration":0.7272727272727273,"channel":9},{"pitch":64,"time":977.5,"duration":0.25,"velocity":50},{"pitch":56,"time":978,"duration":1,"velocity":50},{"pitch":60,"time":979,"duration":0.25,"velocity":50},{"pitch":64,"time":979.5,"duration":0.25,"velocity":50},{"pitch":38,"velocity":90,"time":980,"duration":0.7272727272727273,"channel":9},{"pitch":60,"time":980,"duration":0.25,"velocity":50},{"pitch":52,"time":982.5,"duration":2,"velocity":50},{"pitch":36,"velocity":120,"time":982.9090909090909,"duration":1.8181818181818183,"channel":9},{"pitch":60,"time":983,"duration":1,"velocity":50},{"pitch":42,"velocity":20,"time":984.7272727272727,"duration":1.0909090909090908,"channel":9},{"pitch":42,"velocity":60,"time":985.8181818181819,"duration":1.4545454545454546,"channel":9},{"pitch":70,"time":986.5,"duration":0.5,"velocity":65},{"pitch":36,"velocity":120,"time":992,"duration":0.7272727272727273,"channel":9},{"pitch":42,"velocity":60,"time":993.4545454545455,"duration":0.7272727272727273,"channel":9},{"pitch":59,"time":994,"duration":1,"velocity":50},{"pitch":38,"velocity":90,"time":996,"duration":0.7272727272727273,"channel":9},{"pitch":60,"time":997,"duration":0.5,"velocity":65},{"pitch":42,"velocity":60,"time":997.4545454545455,"duration":0.7272727272727273,"channel":9},{"pitch":64,"time":997.5,"duration":0.5,"velocity":50},{"pitch":60,"time":998,"duration":0.5,"velocity":50},{"pitch":42,"velocity":20,"time":998.1818181818181,"duration":0.7272727272727273,"channel":9},{"pitch":36,"velocity":120,"time":998.9090909090909,"duration":1.8181818181818183,"channel":9},{"pitch":57,"time":1001,"duration":0.25,"velocity":50},{"pitch":61,"time":1002,"duration":0.25,"velocity":50},{"pitch":64,"time":1002.5,"duration":0.25,"velocity":65},{"pitch":56,"time":1003,"duration":0.25,"velocity":50},{"pitch":38,"velocity":90,"time":1004,"duration":0.7272727272727273,"channel":9},{"pitch":64,"time":1004.5,"duration":0.5,"velocity":50},{"pitch":42,"velocity":60,"time":1005.8181818181819,"duration":1.4545454545454546,"channel":9},{"pitch":56,"time":1007.5,"duration":2,"velocity":65},{"pitch":42,"velocity":20,"time":1008.7272727272727,"duration":0.7272727272727273,"channel":9},{"pitch":42,"velocity":60,"time":1009.4545454545455,"duration":0.7272727272727273,"channel":9},{"pitch":52,"time":1009.5,"duration":0.25,"velocity":50},{"pitch":56,"time":1010,"duration":0.25,"velocity":50},{"pitch":60,"time":1011,"duration":0.25,"velocity":65},{"pitch":38,"velocity":90,"time":1012,"duration":0.7272727272727273,"channel":9},{"pitch":56,"time":1014,"duration":0.25,"velocity":65},{"pitch":36,"velocity":120,"time":1014.9090909090909,"duration":1.8181818181818183,"channel":9},{"pitch":60,"time":1016,"duration":0.25,"velocity":50},{"pitch":56,"time":1016.5,"duration":2,"velocity":50},{"pitch":42,"velocity":20,"time":1016.7272727272727,"duration":1.0909090909090908,"channel":9},{"pitch":42,"velocity":60,"time":1017.8181818181819,"duration":1.4545454545454546,"channel":9},{"pitch":56,"time":1019,"duration":1,"velocity":50},{"pitch":70,"time":1020.5,"duration":0.25,"velocity":50},{"pitch":56,"time":1021,"duration":0.25,"velocity":50},{"pitch":60,"time":1022,"duration":0.25,"velocity":50},{"pitch":56,"time":1023,"duration":0.25,"velocity":50},{"pitch":36,"velocity":120,"time":1024,"duration":0.7272727272727273,"channel":9},{"pitch":56,"time":1024,"duration":0.25,"velocity":50},{"pitch":65,"time":1025,"duration":0.5,"velocity":50},{"pitch":42,"velocity":60,"time":1025.4545454545455,"duration":0.7272727272727273,"channel":9},{"pitch":64,"time":1025.5,"duration":0.5,"velocity":65},{"pitch":60,"time":1026,"duration":0.5,"velocity":50},{"pitch":61,"time":1026.5,"duration":2,"velocity":65},{"pitch":38,"velocity":90,"time":1028,"duration":0.7272727272727273,"channel":9},{"pitch":62,"time":1029,"duration":1,"velocity":50},{"pitch":42,"velocity":60,"time":1029.4545454545455,"duration":0.7272727272727273,"channel":9},{"pitch":60,"time":1030,"duration":0.25,"velocity":50},{"pitch":42,"velocity":20,"time":1030.1818181818182,"duration":0.7272727272727273,"channel":9},{"pitch":64,"time":1030.5,"duration":0.25,"velocity":50},{"pitch":36,"velocity":120,"time":1030.909090909091,"duration":1.8181818181818183,"channel":9},{"pitch":56,"time":1031,"duration":0.25,"velocity":50},{"pitch":38,"velocity":90,"time":1036,"duration":0.7272727272727273,"channel":9},{"pitch":42,"velocity":60,"time":1037.8181818181818,"duration":1.4545454545454546,"channel":9},{"pitch":56,"time":1040,"duration":1,"velocity":65},{"pitch":42,"velocity":20,"time":1040.7272727272727,"duration":0.7272727272727273,"channel":9},{"pitch":60,"time":1041,"duration":0.25,"velocity":50},{"pitch":42,"velocity":60,"time":1041.4545454545455,"duration":0.7272727272727273,"channel":9},{"pitch":64,"time":1041.5,"duration":0.25,"velocity":50},{"pitch":56,"time":1042,"duration":1,"velocity":50},{"pitch":60,"time":1043,"duration":0.25,"velocity":50},{"pitch":64,"time":1043.5,"duration":0.25,"velocity":50},{"pitch":38,"velocity":90,"time":1044,"duration":0.7272727272727273,"channel":9},{"pitch":61,"time":1044,"duration":0.25,"velocity":50},{"pitch":52,"time":1046.5,"duration":2,"velocity":50},{"pitch":36,"velocity":120,"time":1046.909090909091,"duration":1.8181818181818183,"channel":9},{"pitch":56,"time":1047,"duration":1,"velocity":50},{"pitch":42,"velocity":20,"time":1048.7272727272727,"duration":1.0909090909090908,"channel":9},{"pitch":42,"velocity":60,"time":1049.8181818181818,"duration":1.4545454545454546,"channel":9},{"pitch":64,"time":1050.5,"duration":0.5,"velocity":65},{"pitch":36,"velocity":120,"time":1056,"duration":0.7272727272727273,"channel":9},{"pitch":42,"velocity":60,"time":1057.4545454545455,"duration":0.7272727272727273,"channel":9},{"pitch":56,"time":1058,"duration":1,"velocity":50},{"pitch":38,"velocity":90,"time":1060,"duration":0.7272727272727273,"channel":9},{"pitch":60,"time":1061,"duration":0.5,"velocity":65},{"pitch":42,"velocity":60,"time":1061.4545454545455,"duration":0.7272727272727273,"channel":9},{"pitch":68,"time":1061.5,"duration":0.5,"velocity":50},{"pitch":60,"time":1062,"duration":0.5,"velocity":50},{"pitch":42,"velocity":20,"time":1062.1818181818182,"duration":0.7272727272727273,"channel":9},{"pitch":36,"velocity":120,"time":1062.909090909091,"duration":1.8181818181818183,"channel":9},{"pitch":62,"time":1065,"duration":0.25,"velocity":50},{"pitch":64,"time":1066,"duration":0.25,"velocity":50},{"pitch":64,"time":1066.5,"duration":0.25,"velocity":65},{"pitch":56,"time":1067,"duration":0.25,"velocity":50},{"pitch":38,"velocity":90,"time":1068,"duration":0.7272727272727273,"channel":9},{"pitch":70,"time":1068.5,"duration":0.5,"velocity":50},{"pitch":42,"velocity":60,"time":1069.8181818181818,"duration":1.4545454545454546,"channel":9},{"pitch":62,"time":1071.5,"duration":2,"velocity":65},{"pitch":42,"velocity":20,"time":1072.7272727272727,"duration":0.7272727272727273,"channel":9},{"pitch":42,"velocity":60,"time":1073.4545454545455,"duration":0.7272727272727273,"channel":9},{"pitch":52,"time":1073.5,"duration":0.25,"velocity":50},{"pitch":56,"time":1074,"duration":0.25,"velocity":50},{"pitch":60,"time":1075,"duration":0.25,"velocity":65},{"pitch":38,"velocity":90,"time":1076,"duration":0.7272727272727273,"channel":9},{"pitch":60,"time":1078,"duration":0.25,"velocity":65},{"pitch":36,"velocity":120,"time":1078.909090909091,"duration":1.8181818181818183,"channel":9},{"pitch":59,"time":1080,"duration":0.25,"velocity":50},{"pitch":56,"time":1080.5,"duration":2,"velocity":50},{"pitch":42,"velocity":20,"time":1080.7272727272727,"duration":1.0909090909090908,"channel":9},{"pitch":42,"velocity":60,"time":1081.8181818181818,"duration":1.4545454545454546,"channel":9},{"pitch":56,"time":1083,"duration":1,"velocity":50},{"pitch":64,"time":1084.5,"duration":0.25,"velocity":50},{"pitch":56,"time":1085,"duration":0.25,"velocity":50},{"pitch":59,"time":1086,"duration":0.25,"velocity":50},{"pitch":56,"time":1087,"duration":0.25,"velocity":50},{"pitch":36,"velocity":120,"time":1088,"duration":0.7272727272727273,"channel":9},{"pitch":57,"time":1088,"duration":0.25,"velocity":50},{"pitch":60,"time":1089,"duration":0.5,"velocity":50},{"pitch":42,"velocity":60,"time":1089.4545454545455,"duration":0.7272727272727273,"channel":9},{"pitch":64,"time":1089.5,"duration":0.5,"velocity":65},{"pitch":60,"time":1090,"duration":0.5,"velocity":50},{"pitch":56,"time":1090.5,"duration":2,"velocity":65},{"pitch":38,"velocity":90,"time":1092,"duration":0.7272727272727273,"channel":9},{"pitch":56,"time":1093,"duration":1,"velocity":50},{"pitch":42,"velocity":60,"time":1093.4545454545455,"duration":0.7272727272727273,"channel":9},{"pitch":60,"time":1094,"duration":0.25,"velocity":50},{"pitch":42,"velocity":20,"time":1094.1818181818182,"duration":0.7272727272727273,"channel":9},{"pitch":64,"time":1094.5,"duration":0.25,"velocity":50},{"pitch":36,"velocity":120,"time":1094.909090909091,"duration":1.8181818181818183,"channel":9},{"pitch":55,"time":1095,"duration":0.25,"velocity":50},{"pitch":38,"velocity":90,"time":1100,"duration":0.7272727272727273,"channel":9},{"pitch":42,"velocity":60,"time":1101.8181818181818,"duration":1.4545454545454546,"channel":9},{"pitch":56,"time":1104,"duration":1,"velocity":65},{"pitch":42,"velocity":20,"time":1104.7272727272727,"duration":0.7272727272727273,"channel":9},{"pitch":60,"time":1105,"duration":0.25,"velocity":50},{"pitch":42,"velocity":60,"time":1105.4545454545455,"duration":0.7272727272727273,"channel":9},{"pitch":70,"time":1105.5,"duration":0.25,"velocity":50},{"pitch":61,"time":1106,"duration":1,"velocity":50},{"pitch":64,"time":1107,"duration":0.25,"velocity":50},{"pitch":68,"time":1107.5,"duration":0.25,"velocity":50},{"pitch":38,"velocity":90,"time":1108,"duration":0.7272727272727273,"channel":9},{"pitch":64,"time":1108,"duration":0.25,"velocity":50},{"pitch":52,"time":1110.5,"duration":2,"velocity":50},{"pitch":36,"velocity":120,"time":1110.909090909091,"duration":1.8181818181818183,"channel":9},{"pitch":56,"time":1111,"duration":1,"velocity":50},{"pitch":42,"velocity":20,"time":1112.7272727272727,"duration":1.0909090909090908,"channel":9},{"pitch":42,"velocity":60,"time":1113.8181818181818,"duration":1.4545454545454546,"channel":9},{"pitch":64,"time":1114.5,"duration":0.5,"velocity":65},{"pitch":36,"velocity":120,"time":1120,"duration":0.7272727272727273,"channel":9},{"pitch":42,"velocity":60,"time":1121.4545454545455,"duration":0.7272727272727273,"channel":9},{"pitch":56,"time":1122,"duration":1,"velocity":50},{"pitch":38,"velocity":90,"time":1124,"duration":0.7272727272727273,"channel":9},{"pitch":60,"time":1125,"duration":0.5,"velocity":65},{"pitch":42,"velocity":60,"time":1125.4545454545455,"duration":0.7272727272727273,"channel":9},{"pitch":64,"time":1125.5,"duration":0.5,"velocity":50},{"pitch":60,"time":1126,"duration":0.5,"velocity":50},{"pitch":42,"velocity":20,"time":1126.1818181818182,"duration":0.7272727272727273,"channel":9},{"pitch":36,"velocity":120,"time":1126.909090909091,"duration":1.8181818181818183,"channel":9},{"pitch":57,"time":1129,"duration":0.25,"velocity":50},{"pitch":60,"time":1130,"duration":0.25,"velocity":50},{"pitch":64,"time":1130.5,"duration":0.25,"velocity":65},{"pitch":56,"time":1131,"duration":0.25,"velocity":50},{"pitch":38,"velocity":90,"time":1132,"duration":0.7272727272727273,"channel":9},{"pitch":64,"time":1132.5,"duration":0.5,"velocity":50},{"pitch":42,"velocity":60,"time":1133.8181818181818,"duration":1.4545454545454546,"channel":9},{"pitch":55,"time":1135.5,"duration":2,"velocity":65},{"pitch":42,"velocity":20,"time":1136.7272727272727,"duration":0.7272727272727273,"channel":9},{"pitch":42,"velocity":60,"time":1137.4545454545455,"duration":0.7272727272727273,"channel":9},{"pitch":52,"time":1137.5,"duration":0.25,"velocity":50},{"pitch":56,"time":1138,"duration":0.25,"velocity":50},{"pitch":60,"time":1139,"duration":0.25,"velocity":65},{"pitch":38,"velocity":90,"time":1140,"duration":0.7272727272727273,"channel":9},{"pitch":62,"time":1142,"duration":0.25,"velocity":65},{"pitch":36,"velocity":120,"time":1142.909090909091,"duration":1.8181818181818183,"channel":9},{"pitch":60,"time":1144,"duration":0.25,"velocity":50},{"pitch":62,"time":1144.5,"duration":2,"velocity":50},{"pitch":42,"velocity":20,"time":1144.7272727272727,"duration":1.0909090909090908,"channel":9},{"pitch":42,"velocity":60,"time":1145.8181818181818,"duration":1.4545454545454546,"channel":9},{"pitch":55,"time":1147,"duration":1,"velocity":50},{"pitch":65,"time":1148.5,"duration":0.25,"velocity":50},{"pitch":56,"time":1149,"duration":0.25,"velocity":50},{"pitch":60,"time":1150,"duration":0.25,"velocity":50},{"pitch":60,"time":1151,"duration":0.25,"velocity":50},{"pitch":36,"velocity":120,"time":1152,"duration":0.7272727272727273,"channel":9},{"pitch":56,"time":1152,"duration":0.25,"velocity":50},{"pitch":60,"time":1153,"duration":0.5,"velocity":50},{"pitch":42,"velocity":60,"time":1153.4545454545455,"duration":0.7272727272727273,"channel":9},{"pitch":64,"time":1153.5,"duration":0.5,"velocity":65},{"pitch":66,"time":1154,"duration":0.5,"velocity":50},{"pitch":62,"time":1154.5,"duration":2,"velocity":65},{"pitch":38,"velocity":90,"time":1156,"duration":0.7272727272727273,"channel":9},{"pitch":62,"time":1157,"duration":1,"velocity":50},{"pitch":42,"velocity":60,"time":1157.4545454545455,"duration":0.7272727272727273,"channel":9},{"pitch":60,"time":1158,"duration":0.25,"velocity":50},{"pitch":42,"velocity":20,"time":1158.1818181818182,"duration":0.7272727272727273,"channel":9},{"pitch":70,"time":1158.5,"duration":0.25,"velocity":50},{"pitch":36,"velocity":120,"time":1158.909090909091,"duration":1.8181818181818183,"channel":9},{"pitch":61,"time":1159,"duration":0.25,"velocity":50},{"pitch":38,"velocity":90,"time":1164,"duration":0.7272727272727273,"channel":9},{"pitch":42,"velocity":60,"time":1165.8181818181818,"duration":1.4545454545454546,"channel":9},{"pitch":56,"time":1168,"duration":1,"velocity":65},{"pitch":42,"velocity":20,"time":1168.7272727272727,"duration":0.7272727272727273,"channel":9},{"pitch":60,"time":1169,"duration":0.25,"velocity":50},{"pitch":42,"velocity":60,"time":1169.4545454545455,"duration":0.7272727272727273,"channel":9},{"pitch":64,"time":1169.5,"duration":0.25,"velocity":50},{"pitch":56,"time":1170,"duration":1,"velocity":50},{"pitch":60,"time":1171,"duration":0.25,"velocity":50},{"pitch":64,"time":1171.5,"duration":0.25,"velocity":50},{"pitch":38,"velocity":90,"time":1172,"duration":0.7272727272727273,"channel":9},{"pitch":60,"time":1172,"duration":0.25,"velocity":50},{"pitch":52,"time":1174.5,"duration":2,"velocity":50},{"pitch":36,"velocity":120,"time":1174.909090909091,"duration":1.8181818181818183,"channel":9},{"pitch":56,"time":1175,"duration":1,"velocity":50},{"pitch":42,"velocity":20,"time":1176.7272727272727,"duration":1.0909090909090908,"channel":9},{"pitch":42,"velocity":60,"time":1177.8181818181818,"duration":1.4545454545454546,"channel":9},{"pitch":64,"time":1178.5,"duration":0.5,"velocity":65},{"pitch":36,"velocity":120,"time":1184,"duration":0.7272727272727273,"channel":9},{"pitch":42,"velocity":60,"time":1185.4545454545455,"duration":0.7272727272727273,"channel":9},{"pitch":60,"time":1186,"duration":1,"velocity":50},{"pitch":38,"velocity":90,"time":1188,"duration":0.7272727272727273,"channel":9},{"pitch":60,"time":1189,"duration":0.5,"velocity":65},{"pitch":42,"velocity":60,"time":1189.4545454545455,"duration":0.7272727272727273,"channel":9},{"pitch":70,"time":1189.5,"duration":0.5,"velocity":50},{"pitch":60,"time":1190,"duration":0.5,"velocity":50},{"pitch":42,"velocity":20,"time":1190.1818181818182,"duration":0.7272727272727273,"channel":9},{"pitch":36,"velocity":120,"time":1190.909090909091,"duration":1.8181818181818183,"channel":9},{"pitch":62,"time":1193,"duration":0.25,"velocity":50},{"pitch":61,"time":1194,"duration":0.25,"velocity":50},{"pitch":70,"time":1194.5,"duration":0.25,"velocity":65},{"pitch":56,"time":1195,"duration":0.25,"velocity":50},{"pitch":38,"velocity":90,"time":1196,"duration":0.7272727272727273,"channel":9},{"pitch":64,"time":1196.5,"duration":0.5,"velocity":50},{"pitch":42,"velocity":60,"time":1197.8181818181818,"duration":1.4545454545454546,"channel":9},{"pitch":56,"time":1199.5,"duration":2,"velocity":65},{"pitch":42,"velocity":20,"time":1200.7272727272727,"duration":0.7272727272727273,"channel":9},{"pitch":42,"velocity":60,"time":1201.4545454545455,"duration":0.7272727272727273,"channel":9},{"pitch":52,"time":1201.5,"duration":0.25,"velocity":50},{"pitch":56,"time":1202,"duration":0.25,"velocity":50},{"pitch":60,"time":1203,"duration":0.25,"velocity":65},{"pitch":38,"velocity":90,"time":1204,"duration":0.7272727272727273,"channel":9},{"pitch":56,"time":1206,"duration":0.25,"velocity":65},{"pitch":36,"velocity":120,"time":1206.909090909091,"duration":1.8181818181818183,"channel":9},{"pitch":60,"time":1208,"duration":0.25,"velocity":50},{"pitch":56,"time":1208.5,"duration":2,"velocity":50},{"pitch":42,"velocity":20,"time":1208.7272727272727,"duration":1.0909090909090908,"channel":9},{"pitch":42,"velocity":60,"time":1209.8181818181818,"duration":1.4545454545454546,"channel":9},{"pitch":56,"time":1211,"duration":1,"velocity":50},{"pitch":64,"time":1212.5,"duration":0.25,"velocity":50},{"pitch":56,"time":1213,"duration":0.25,"velocity":50},{"pitch":60,"time":1214,"duration":0.25,"velocity":50},{"pitch":56,"time":1215,"duration":0.25,"velocity":50},{"pitch":36,"velocity":120,"time":1216,"duration":0.7272727272727273,"channel":9},{"pitch":56,"time":1216,"duration":0.25,"velocity":50},{"pitch":60,"time":1217,"duration":0.5,"velocity":50},{"pitch":42,"velocity":60,"time":1217.4545454545455,"duration":0.7272727272727273,"channel":9},{"pitch":64,"time":1217.5,"duration":0.5,"velocity":65},{"pitch":60,"time":1218,"duration":0.5,"velocity":50},{"pitch":56,"time":1218.5,"duration":2,"velocity":65},{"pitch":38,"velocity":90,"time":1220,"duration":0.7272727272727273,"channel":9},{"pitch":56,"time":1221,"duration":1,"velocity":50},{"pitch":42,"velocity":60,"time":1221.4545454545455,"duration":0.7272727272727273,"channel":9},{"pitch":60,"time":1222,"duration":0.25,"velocity":50},{"pitch":42,"velocity":20,"time":1222.1818181818182,"duration":0.7272727272727273,"channel":9},{"pitch":64,"time":1222.5,"duration":0.25,"velocity":50},{"pitch":36,"velocity":120,"time":1222.909090909091,"duration":1.8181818181818183,"channel":9},{"pitch":56,"time":1223,"duration":0.25,"velocity":50},{"pitch":38,"velocity":90,"time":1228,"duration":0.7272727272727273,"channel":9},{"pitch":42,"velocity":60,"time":1229.8181818181818,"duration":1.4545454545454546,"channel":9},{"pitch":57,"time":1232,"duration":1,"velocity":65},{"pitch":42,"velocity":20,"time":1232.7272727272727,"duration":0.7272727272727273,"channel":9},{"pitch":61,"time":1233,"duration":0.25,"velocity":50},{"pitch":42,"velocity":60,"time":1233.4545454545455,"duration":0.7272727272727273,"channel":9},{"pitch":69,"time":1233.5,"duration":0.25,"velocity":50},{"pitch":57,"time":1234,"duration":1,"velocity":50},{"pitch":64,"time":1235,"duration":0.25,"velocity":50},{"pitch":65,"time":1235.5,"duration":0.25,"velocity":50},{"pitch":38,"velocity":90,"time":1236,"duration":0.7272727272727273,"channel":9},{"pitch":60,"time":1236,"duration":0.25,"velocity":50},{"pitch":52,"time":1238.5,"duration":2,"velocity":50},{"pitch":36,"velocity":120,"time":1238.909090909091,"duration":1.8181818181818183,"channel":9},{"pitch":60,"time":1239,"duration":1,"velocity":50},{"pitch":42,"velocity":20,"time":1240.7272727272727,"duration":1.0909090909090908,"channel":9},{"pitch":42,"velocity":60,"time":1241.8181818181818,"duration":1.4545454545454546,"channel":9},{"pitch":64,"time":1242.5,"duration":0.5,"velocity":65},{"pitch":36,"velocity":120,"time":1248,"duration":0.7272727272727273,"channel":9},{"pitch":42,"velocity":60,"time":1249.4545454545455,"duration":0.7272727272727273,"channel":9},{"pitch":56,"time":1250,"duration":1,"velocity":50},{"pitch":38,"velocity":90,"time":1252,"duration":0.7272727272727273,"channel":9},{"pitch":60,"time":1253,"duration":0.5,"velocity":65},{"pitch":42,"velocity":60,"time":1253.4545454545455,"duration":0.7272727272727273,"channel":9},{"pitch":64,"time":1253.5,"duration":0.5,"velocity":50},{"pitch":60,"time":1254,"duration":0.5,"velocity":50},{"pitch":42,"velocity":20,"time":1254.1818181818182,"duration":0.7272727272727273,"channel":9},{"pitch":36,"velocity":120,"time":1254.909090909091,"duration":1.8181818181818183,"channel":9},{"pitch":56,"time":1257,"duration":0.25,"velocity":50},{"pitch":60,"time":1258,"duration":0.25,"velocity":50},{"pitch":64,"time":1258.5,"duration":0.25,"velocity":65},{"pitch":56,"time":1259,"duration":0.25,"velocity":50},{"pitch":38,"velocity":90,"time":1260,"duration":0.7272727272727273,"channel":9},{"pitch":68,"time":1260.5,"duration":0.5,"velocity":50},{"pitch":42,"velocity":60,"time":1261.8181818181818,"duration":1.4545454545454546,"channel":9},{"pitch":56,"time":1263.5,"duration":2,"velocity":65},{"pitch":42,"velocity":20,"time":1264.7272727272727,"duration":0.7272727272727273,"channel":9},{"pitch":42,"velocity":60,"time":1265.4545454545455,"duration":0.7272727272727273,"channel":9},{"pitch":52,"time":1265.5,"duration":0.25,"velocity":50},{"pitch":56,"time":1266,"duration":0.25,"velocity":50},{"pitch":64,"time":1267,"duration":0.25,"velocity":65},{"pitch":38,"velocity":90,"time":1268,"duration":0.7272727272727273,"channel":9},{"pitch":60,"time":1270,"duration":0.25,"velocity":65},{"pitch":36,"velocity":120,"time":1270.909090909091,"duration":1.8181818181818183,"channel":9},{"pitch":60,"time":1272,"duration":0.25,"velocity":50},{"pitch":62,"time":1272.5,"duration":2,"velocity":50},{"pitch":42,"velocity":20,"time":1272.7272727272727,"duration":1.0909090909090908,"channel":9},{"pitch":42,"velocity":60,"time":1273.8181818181818,"duration":1.4545454545454546,"channel":9},{"pitch":60,"time":1275,"duration":1,"velocity":50},{"pitch":70,"time":1276.5,"duration":0.25,"velocity":50},{"pitch":56,"time":1277,"duration":0.25,"velocity":50},{"pitch":65,"time":1278,"duration":0.25,"velocity":50},{"pitch":57,"time":1279,"duration":0.25,"velocity":50},{"pitch":36,"velocity":120,"time":1280,"duration":0.7272727272727273,"channel":9},{"pitch":56,"time":1280,"duration":0.25,"velocity":50},{"pitch":60,"time":1281,"duration":0.5,"velocity":50},{"pitch":42,"velocity":60,"time":1281.4545454545455,"duration":0.7272727272727273,"channel":9},{"pitch":64,"time":1281.5,"duration":0.5,"velocity":65},{"pitch":60,"time":1282,"duration":0.5,"velocity":50},{"pitch":56,"time":1282.5,"duration":2,"velocity":65},{"pitch":38,"velocity":90,"time":1284,"duration":0.7272727272727273,"channel":9},{"pitch":56,"time":1285,"duration":1,"velocity":50},{"pitch":42,"velocity":60,"time":1285.4545454545455,"duration":0.7272727272727273,"channel":9},{"pitch":60,"time":1286,"duration":0.25,"velocity":50},{"pitch":42,"velocity":20,"time":1286.1818181818182,"duration":0.7272727272727273,"channel":9},{"pitch":64,"time":1286.5,"duration":0.25,"velocity":50},{"pitch":36,"velocity":120,"time":1286.909090909091,"duration":1.8181818181818183,"channel":9},{"pitch":57,"time":1287,"duration":0.25,"velocity":50},{"pitch":38,"velocity":90,"time":1292,"duration":0.7272727272727273,"channel":9},{"pitch":42,"velocity":60,"time":1293.8181818181818,"duration":1.4545454545454546,"channel":9},{"pitch":56,"time":1296,"duration":1,"velocity":65},{"pitch":42,"velocity":20,"time":1296.7272727272727,"duration":0.7272727272727273,"channel":9},{"pitch":60,"time":1297,"duration":0.25,"velocity":50},{"pitch":42,"velocity":60,"time":1297.4545454545455,"duration":0.7272727272727273,"channel":9},{"pitch":64,"time":1297.5,"duration":0.25,"velocity":50},{"pitch":56,"time":1298,"duration":1,"velocity":50},{"pitch":60,"time":1299,"duration":0.25,"velocity":50},{"pitch":64,"time":1299.5,"duration":0.25,"velocity":50},{"pitch":38,"velocity":90,"time":1300,"duration":0.7272727272727273,"channel":9},{"pitch":64,"time":1300,"duration":0.25,"velocity":50},{"pitch":52,"time":1302.5,"duration":2,"velocity":50},{"pitch":36,"velocity":120,"time":1302.909090909091,"duration":1.8181818181818183,"channel":9},{"pitch":56,"time":1303,"duration":1,"velocity":50},{"pitch":42,"velocity":20,"time":1304.7272727272727,"duration":1.0909090909090908,"channel":9},{"pitch":42,"velocity":60,"time":1305.8181818181818,"duration":1.4545454545454546,"channel":9},{"pitch":68,"time":1306.5,"duration":0.5,"velocity":65},{"pitch":36,"velocity":120,"time":1312,"duration":0.7272727272727273,"channel":9},{"pitch":42,"velocity":60,"time":1313.4545454545455,"duration":0.7272727272727273,"channel":9},{"pitch":61,"time":1314,"duration":1,"velocity":50},{"pitch":38,"velocity":90,"time":1316,"duration":0.7272727272727273,"channel":9},{"pitch":60,"time":1317,"duration":0.5,"velocity":65},{"pitch":42,"velocity":60,"time":1317.4545454545455,"duration":0.7272727272727273,"channel":9},{"pitch":64,"time":1317.5,"duration":0.5,"velocity":50},{"pitch":65,"time":1318,"duration":0.5,"velocity":50},{"pitch":42,"velocity":20,"time":1318.1818181818182,"duration":0.7272727272727273,"channel":9},{"pitch":36,"velocity":120,"time":1318.909090909091,"duration":1.8181818181818183,"channel":9},{"pitch":55,"time":1321,"duration":0.25,"velocity":50},{"pitch":60,"time":1322,"duration":0.25,"velocity":50},{"pitch":64,"time":1322.5,"duration":0.25,"velocity":65},{"pitch":57,"time":1323,"duration":0.25,"velocity":50},{"pitch":38,"velocity":90,"time":1324,"duration":0.7272727272727273,"channel":9},{"pitch":64,"time":1324.5,"duration":0.5,"velocity":50},{"pitch":42,"velocity":60,"time":1325.8181818181818,"duration":1.4545454545454546,"channel":9},{"pitch":56,"time":1327.5,"duration":2,"velocity":65},{"pitch":42,"velocity":20,"time":1328.7272727272727,"duration":0.7272727272727273,"channel":9},{"pitch":42,"velocity":60,"time":1329.4545454545455,"duration":0.7272727272727273,"channel":9},{"pitch":52,"time":1329.5,"duration":0.25,"velocity":50},{"pitch":56,"time":1330,"duration":0.25,"velocity":50},{"pitch":60,"time":1331,"duration":0.25,"velocity":65},{"pitch":38,"velocity":90,"time":1332,"duration":0.7272727272727273,"channel":9},{"pitch":57,"time":1334,"duration":0.25,"velocity":65},{"pitch":36,"velocity":120,"time":1334.909090909091,"duration":1.8181818181818183,"channel":9},{"pitch":60,"time":1336,"duration":0.25,"velocity":50},{"pitch":56,"time":1336.5,"duration":2,"velocity":50},{"pitch":42,"velocity":20,"time":1336.7272727272727,"duration":1.0909090909090908,"channel":9},{"pitch":42,"velocity":60,"time":1337.8181818181818,"duration":1.4545454545454546,"channel":9},{"pitch":55,"time":1339,"duration":1,"velocity":50},{"pitch":65,"time":1340.5,"duration":0.25,"velocity":50},{"pitch":55,"time":1341,"duration":0.25,"velocity":50},{"pitch":64,"time":1342,"duration":0.25,"velocity":50},{"pitch":56,"time":1343,"duration":0.25,"velocity":50},{"pitch":36,"velocity":120,"time":1344,"duration":0.7272727272727273,"channel":9},{"pitch":56,"time":1344,"duration":0.25,"velocity":50},{"pitch":60,"time":1345,"duration":0.5,"velocity":50},{"pitch":42,"velocity":60,"time":1345.4545454545455,"duration":0.7272727272727273,"channel":9},{"pitch":68,"time":1345.5,"duration":0.5,"velocity":65},{"pitch":64,"time":1346,"duration":0.5,"velocity":50},{"pitch":56,"time":1346.5,"duration":2,"velocity":65},{"pitch":38,"velocity":90,"time":1348,"duration":0.7272727272727273,"channel":9},{"pitch":56,"time":1349,"duration":1,"velocity":50},{"pitch":42,"velocity":60,"time":1349.4545454545455,"duration":0.7272727272727273,"channel":9},{"pitch":65,"time":1350,"duration":0.25,"velocity":50},{"pitch":42,"velocity":20,"time":1350.1818181818182,"duration":0.7272727272727273,"channel":9},{"pitch":68,"time":1350.5,"duration":0.25,"velocity":50},{"pitch":36,"velocity":120,"time":1350.909090909091,"duration":1.8181818181818183,"channel":9},{"pitch":62,"time":1351,"duration":0.25,"velocity":50},{"pitch":38,"velocity":90,"time":1356,"duration":0.7272727272727273,"channel":9},{"pitch":42,"velocity":60,"time":1357.8181818181818,"duration":1.4545454545454546,"channel":9},{"pitch":56,"time":1360,"duration":1,"velocity":65},{"pitch":42,"velocity":20,"time":1360.7272727272727,"duration":0.7272727272727273,"channel":9},{"pitch":60,"time":1361,"duration":0.25,"velocity":50},{"pitch":42,"velocity":60,"time":1361.4545454545455,"duration":0.7272727272727273,"channel":9},{"pitch":64,"time":1361.5,"duration":0.25,"velocity":50},{"pitch":56,"time":1362,"duration":1,"velocity":50},{"pitch":60,"time":1363,"duration":0.25,"velocity":50},{"pitch":64,"time":1363.5,"duration":0.25,"velocity":50},{"pitch":38,"velocity":90,"time":1364,"duration":0.7272727272727273,"channel":9},{"pitch":60,"time":1364,"duration":0.25,"velocity":50},{"pitch":52,"time":1366.5,"duration":2,"velocity":50},{"pitch":36,"velocity":120,"time":1366.909090909091,"duration":1.8181818181818183,"channel":9},{"pitch":56,"time":1367,"duration":1,"velocity":50},{"pitch":42,"velocity":20,"time":1368.7272727272727,"duration":1.0909090909090908,"channel":9},{"pitch":42,"velocity":60,"time":1369.8181818181818,"duration":1.4545454545454546,"channel":9},{"pitch":65,"time":1370.5,"duration":0.5,"velocity":65},{"pitch":36,"velocity":120,"time":1376,"duration":0.7272727272727273,"channel":9},{"pitch":42,"velocity":60,"time":1377.4545454545455,"duration":0.7272727272727273,"channel":9},{"pitch":56,"time":1378,"duration":1,"velocity":50},{"pitch":38,"velocity":90,"time":1380,"duration":0.7272727272727273,"channel":9},{"pitch":64,"time":1381,"duration":0.5,"velocity":65},{"pitch":42,"velocity":60,"time":1381.4545454545455,"duration":0.7272727272727273,"channel":9},{"pitch":65,"time":1381.5,"duration":0.5,"velocity":50},{"pitch":59,"time":1382,"duration":0.5,"velocity":50},{"pitch":42,"velocity":20,"time":1382.1818181818182,"duration":0.7272727272727273,"channel":9},{"pitch":36,"velocity":120,"time":1382.909090909091,"duration":1.8181818181818183,"channel":9},{"pitch":56,"time":1385,"duration":0.25,"velocity":50},{"pitch":65,"time":1386,"duration":0.25,"velocity":50},{"pitch":68,"time":1386.5,"duration":0.25,"velocity":65},{"pitch":56,"time":1387,"duration":0.25,"velocity":50},{"pitch":38,"velocity":90,"time":1388,"duration":0.7272727272727273,"channel":9},{"pitch":65,"time":1388.5,"duration":0.5,"velocity":50},{"pitch":42,"velocity":60,"time":1389.8181818181818,"duration":1.4545454545454546,"channel":9},{"pitch":62,"time":1391.5,"duration":2,"velocity":65},{"pitch":42,"velocity":20,"time":1392.7272727272727,"duration":0.7272727272727273,"channel":9},{"pitch":42,"velocity":60,"time":1393.4545454545455,"duration":0.7272727272727273,"channel":9},{"pitch":52,"time":1393.5,"duration":0.25,"velocity":50},{"pitch":60,"time":1394,"duration":0.25,"velocity":50},{"pitch":60,"time":1395,"duration":0.25,"velocity":65},{"pitch":38,"velocity":90,"time":1396,"duration":0.7272727272727273,"channel":9},{"pitch":60,"time":1398,"duration":0.25,"velocity":65},{"pitch":36,"velocity":120,"time":1398.909090909091,"duration":1.8181818181818183,"channel":9},{"pitch":60,"time":1400,"duration":0.25,"velocity":50},{"pitch":56,"time":1400.5,"duration":2,"velocity":50},{"pitch":42,"velocity":20,"time":1400.7272727272727,"duration":1.0909090909090908,"channel":9},{"pitch":42,"velocity":60,"time":1401.8181818181818,"duration":1.4545454545454546,"channel":9},{"pitch":56,"time":1403,"duration":1,"velocity":50},{"pitch":64,"time":1404.5,"duration":0.25,"velocity":50},{"pitch":56,"time":1405,"duration":0.25,"velocity":50},{"pitch":60,"time":1406,"duration":0.25,"velocity":50},{"pitch":56,"time":1407,"duration":0.25,"velocity":50},{"pitch":36,"velocity":120,"time":1408,"duration":0.7272727272727273,"channel":9},{"pitch":42,"velocity":60,"time":1409.4545454545455,"duration":0.7272727272727273,"channel":9},{"pitch":38,"velocity":90,"time":1412,"duration":0.7272727272727273,"channel":9},{"pitch":42,"velocity":60,"time":1413.4545454545455,"duration":0.7272727272727273,"channel":9},{"pitch":42,"velocity":20,"time":1414.1818181818182,"duration":0.7272727272727273,"channel":9},{"pitch":36,"velocity":120,"time":1414.909090909091,"duration":1.8181818181818183,"channel":9},{"pitch":38,"velocity":90,"time":1420,"duration":0.7272727272727273,"channel":9},{"pitch":42,"velocity":60,"time":1421.8181818181818,"duration":1.4545454545454546,"channel":9},{"pitch":42,"velocity":20,"time":1424.7272727272727,"duration":0.7272727272727273,"channel":9},{"pitch":42,"velocity":60,"time":1425.4545454545455,"duration":0.7272727272727273,"channel":9},{"pitch":38,"velocity":90,"time":1428,"duration":0.7272727272727273,"channel":9},{"pitch":36,"velocity":120,"time":1430.909090909091,"duration":1.8181818181818183,"channel":9},{"pitch":42,"velocity":20,"time":1432.7272727272727,"duration":1.0909090909090908,"channel":9},{"pitch":42,"velocity":60,"time":1433.8181818181818,"duration":1.4545454545454546,"channel":9},{"pitch":36,"velocity":120,"time":1440,"duration":0.7272727272727273,"channel":9},{"pitch":42,"velocity":60,"time":1441.4545454545455,"duration":0.7272727272727273,"channel":9},{"pitch":38,"velocity":90,"time":1444,"duration":0.7272727272727273,"channel":9},{"pitch":42,"velocity":60,"time":1445.4545454545455,"duration":0.7272727272727273,"channel":9},{"pitch":42,"velocity":20,"time":1446.1818181818182,"duration":0.7272727272727273,"channel":9},{"pitch":36,"velocity":120,"time":1446.909090909091,"duration":1.8181818181818183,"channel":9},{"pitch":38,"velocity":90,"time":1452,"duration":0.7272727272727273,"channel":9},{"pitch":42,"velocity":60,"time":1453.8181818181818,"duration":1.4545454545454546,"channel":9},{"pitch":42,"velocity":20,"time":1456.7272727272727,"duration":0.7272727272727273,"channel":9},{"pitch":42,"velocity":60,"time":1457.4545454545455,"duration":0.7272727272727273,"channel":9},{"pitch":38,"velocity":90,"time":1460,"duration":0.7272727272727273,"channel":9},{"pitch":36,"velocity":120,"time":1462.909090909091,"duration":1.8181818181818183,"channel":9},{"pitch":42,"velocity":20,"time":1464.7272727272727,"duration":1.0909090909090908,"channel":9},{"pitch":42,"velocity":60,"time":1465.8181818181818,"duration":1.4545454545454546,"channel":9},{"pitch":36,"velocity":120,"time":1472,"duration":0.7272727272727273,"channel":9},{"pitch":42,"velocity":60,"time":1473.4545454545455,"duration":0.7272727272727273,"channel":9},{"pitch":38,"velocity":90,"time":1476,"duration":0.7272727272727273,"channel":9},{"pitch":42,"velocity":60,"time":1477.4545454545455,"duration":0.7272727272727273,"channel":9},{"pitch":42,"velocity":20,"time":1478.1818181818182,"duration":0.7272727272727273,"channel":9},{"pitch":36,"velocity":120,"time":1478.909090909091,"duration":1.8181818181818183,"channel":9},{"pitch":38,"velocity":90,"time":1484,"duration":0.7272727272727273,"channel":9},{"pitch":42,"velocity":60,"time":1485.8181818181818,"duration":1.4545454545454546,"channel":9},{"pitch":42,"velocity":20,"time":1488.7272727272727,"duration":0.7272727272727273,"channel":9},{"pitch":42,"velocity":60,"time":1489.4545454545455,"duration":0.7272727272727273,"channel":9},{"pitch":38,"velocity":90,"time":1492,"duration":0.7272727272727273,"channel":9},{"pitch":36,"velocity":120,"time":1494.909090909091,"duration":1.8181818181818183,"channel":9},{"pitch":42,"velocity":20,"time":1496.7272727272727,"duration":1.0909090909090908,"channel":9},{"pitch":42,"velocity":60,"time":1497.8181818181818,"duration":1.4545454545454546,"channel":9},{"pitch":36,"velocity":120,"time":1504,"duration":0.7272727272727273,"channel":9},{"pitch":42,"velocity":60,"time":1505.4545454545455,"duration":0.7272727272727273,"channel":9},{"pitch":38,"velocity":90,"time":1508,"duration":0.7272727272727273,"channel":9},{"pitch":42,"velocity":60,"time":1509.4545454545455,"duration":0.7272727272727273,"channel":9},{"pitch":42,"velocity":20,"time":1510.1818181818182,"duration":0.7272727272727273,"channel":9},{"pitch":36,"velocity":120,"time":1510.909090909091,"duration":1.8181818181818183,"channel":9},{"pitch":38,"velocity":90,"time":1516,"duration":0.7272727272727273,"channel":9},{"pitch":42,"velocity":60,"time":1517.8181818181818,"duration":1.4545454545454546,"channel":9},{"pitch":42,"velocity":20,"time":1520.7272727272727,"duration":0.7272727272727273,"channel":9},{"pitch":42,"velocity":60,"time":1521.4545454545455,"duration":0.7272727272727273,"channel":9},{"pitch":38,"velocity":90,"time":1524,"duration":0.7272727272727273,"channel":9},{"pitch":36,"velocity":120,"time":1526.909090909091,"duration":1.8181818181818183,"channel":9},{"pitch":42,"velocity":20,"time":1528.7272727272727,"duration":1.0909090909090908,"channel":9},{"pitch":42,"velocity":60,"time":1529.8181818181818,"duration":1.4545454545454546,"channel":9},{"pitch":36,"velocity":120,"time":1536,"duration":0.7272727272727273,"channel":9},{"pitch":42,"velocity":60,"time":1537.4545454545455,"duration":0.7272727272727273,"channel":9},{"pitch":38,"velocity":90,"time":1540,"duration":0.7272727272727273,"channel":9},{"pitch":42,"velocity":60,"time":1541.4545454545455,"duration":0.7272727272727273,"channel":9},{"pitch":42,"velocity":20,"time":1542.1818181818182,"duration":0.7272727272727273,"channel":9},{"pitch":36,"velocity":120,"time":1542.909090909091,"duration":1.8181818181818183,"channel":9},{"pitch":38,"velocity":90,"time":1548,"duration":0.7272727272727273,"channel":9},{"pitch":42,"velocity":60,"time":1549.8181818181818,"duration":1.4545454545454546,"channel":9},{"pitch":42,"velocity":20,"time":1552.7272727272727,"duration":0.7272727272727273,"channel":9},{"pitch":42,"velocity":60,"time":1553.4545454545455,"duration":0.7272727272727273,"channel":9},{"pitch":38,"velocity":90,"time":1556,"duration":0.7272727272727273,"channel":9},{"pitch":36,"velocity":120,"time":1558.909090909091,"duration":1.8181818181818183,"channel":9},{"pitch":42,"velocity":20,"time":1560.7272727272727,"duration":1.0909090909090908,"channel":9},{"pitch":42,"velocity":60,"time":1561.8181818181818,"duration":1.4545454545454546,"channel":9},{"pitch":36,"velocity":120,"time":1568,"duration":0.7272727272727273,"channel":9},{"pitch":42,"velocity":60,"time":1569.4545454545455,"duration":0.7272727272727273,"channel":9},{"pitch":38,"velocity":90,"time":1572,"duration":0.7272727272727273,"channel":9},{"pitch":42,"velocity":60,"time":1573.4545454545455,"duration":0.7272727272727273,"channel":9},{"pitch":42,"velocity":20,"time":1574.1818181818182,"duration":0.7272727272727273,"channel":9},{"pitch":36,"velocity":120,"time":1574.909090909091,"duration":1.8181818181818183,"channel":9},{"pitch":38,"velocity":90,"time":1580,"duration":0.7272727272727273,"channel":9},{"pitch":42,"velocity":60,"time":1581.8181818181818,"duration":1.4545454545454546,"channel":9},{"pitch":42,"velocity":20,"time":1584.7272727272727,"duration":0.7272727272727273,"channel":9},{"pitch":42,"velocity":60,"time":1585.4545454545455,"duration":0.7272727272727273,"channel":9},{"pitch":38,"velocity":90,"time":1588,"duration":0.7272727272727273,"channel":9},{"pitch":36,"velocity":120,"time":1590.909090909091,"duration":1.8181818181818183,"channel":9},{"pitch":42,"velocity":20,"time":1592.7272727272727,"duration":1.0909090909090908,"channel":9},{"pitch":42,"velocity":60,"time":1593.8181818181818,"duration":1.4545454545454546,"channel":9},{"pitch":36,"velocity":120,"time":1600,"duration":0.7272727272727273,"channel":9},{"pitch":42,"velocity":60,"time":1601.4545454545455,"duration":0.7272727272727273,"channel":9},{"pitch":38,"velocity":90,"time":1604,"duration":0.7272727272727273,"channel":9},{"pitch":42,"velocity":60,"time":1605.4545454545455,"duration":0.7272727272727273,"channel":9},{"pitch":42,"velocity":20,"time":1606.1818181818182,"duration":0.7272727272727273,"channel":9},{"pitch":36,"velocity":120,"time":1606.909090909091,"duration":1.8181818181818183,"channel":9},{"pitch":38,"velocity":90,"time":1612,"duration":0.7272727272727273,"channel":9},{"pitch":42,"velocity":60,"time":1613.8181818181818,"duration":1.4545454545454546,"channel":9},{"pitch":42,"velocity":20,"time":1616.7272727272727,"duration":0.7272727272727273,"channel":9},{"pitch":42,"velocity":60,"time":1617.4545454545455,"duration":0.7272727272727273,"channel":9},{"pitch":38,"velocity":90,"time":1620,"duration":0.7272727272727273,"channel":9},{"pitch":36,"velocity":120,"time":1622.909090909091,"duration":1.8181818181818183,"channel":9},{"pitch":42,"velocity":20,"time":1624.7272727272727,"duration":1.0909090909090908,"channel":9},{"pitch":42,"velocity":60,"time":1625.8181818181818,"duration":1.4545454545454546,"channel":9},{"pitch":36,"velocity":120,"time":1632,"duration":0.7272727272727273,"channel":9},{"pitch":42,"velocity":60,"time":1633.4545454545455,"duration":0.7272727272727273,"channel":9},{"pitch":38,"velocity":90,"time":1636,"duration":0.7272727272727273,"channel":9},{"pitch":42,"velocity":60,"time":1637.4545454545455,"duration":0.7272727272727273,"channel":9},{"pitch":42,"velocity":20,"time":1638.1818181818182,"duration":0.7272727272727273,"channel":9},{"pitch":36,"velocity":120,"time":1638.909090909091,"duration":1.8181818181818183,"channel":9},{"pitch":38,"velocity":90,"time":1644,"duration":0.7272727272727273,"channel":9},{"pitch":42,"velocity":60,"time":1645.8181818181818,"duration":1.4545454545454546,"channel":9},{"pitch":42,"velocity":20,"time":1648.7272727272727,"duration":0.7272727272727273,"channel":9},{"pitch":42,"velocity":60,"time":1649.4545454545455,"duration":0.7272727272727273,"channel":9},{"pitch":38,"velocity":90,"time":1652,"duration":0.7272727272727273,"channel":9},{"pitch":36,"velocity":120,"time":1654.909090909091,"duration":1.8181818181818183,"channel":9},{"pitch":42,"velocity":20,"time":1656.7272727272727,"duration":1.0909090909090908,"channel":9},{"pitch":42,"velocity":60,"time":1657.8181818181818,"duration":1.4545454545454546,"channel":9},{"pitch":36,"velocity":120,"time":1664,"duration":0.7272727272727273,"channel":9},{"pitch":42,"velocity":60,"time":1665.4545454545455,"duration":0.7272727272727273,"channel":9},{"pitch":38,"velocity":90,"time":1668,"duration":0.7272727272727273,"channel":9},{"pitch":42,"velocity":60,"time":1669.4545454545455,"duration":0.7272727272727273,"channel":9},{"pitch":42,"velocity":20,"time":1670.1818181818182,"duration":0.7272727272727273,"channel":9},{"pitch":36,"velocity":120,"time":1670.909090909091,"duration":1.8181818181818183,"channel":9},{"pitch":38,"velocity":90,"time":1676,"duration":0.7272727272727273,"channel":9},{"pitch":42,"velocity":60,"time":1677.8181818181818,"duration":1.4545454545454546,"channel":9},{"pitch":42,"velocity":20,"time":1680.7272727272727,"duration":0.7272727272727273,"channel":9},{"pitch":42,"velocity":60,"time":1681.4545454545455,"duration":0.7272727272727273,"channel":9},{"pitch":38,"velocity":90,"time":1684,"duration":0.7272727272727273,"channel":9},{"pitch":36,"velocity":120,"time":1686.909090909091,"duration":1.8181818181818183,"channel":9},{"pitch":42,"velocity":20,"time":1688.7272727272727,"duration":1.0909090909090908,"channel":9},{"pitch":42,"velocity":60,"time":1689.8181818181818,"duration":1.4545454545454546,"channel":9},{"pitch":36,"velocity":120,"time":1696,"duration":0.7272727272727273,"channel":9},{"pitch":42,"velocity":60,"time":1697.4545454545455,"duration":0.7272727272727273,"channel":9},{"pitch":38,"velocity":90,"time":1700,"duration":0.7272727272727273,"channel":9},{"pitch":42,"velocity":60,"time":1701.4545454545455,"duration":0.7272727272727273,"channel":9},{"pitch":42,"velocity":20,"time":1702.1818181818182,"duration":0.7272727272727273,"channel":9},{"pitch":36,"velocity":120,"time":1702.909090909091,"duration":1.8181818181818183,"channel":9},{"pitch":38,"velocity":90,"time":1708,"duration":0.7272727272727273,"channel":9},{"pitch":42,"velocity":60,"time":1709.8181818181818,"duration":1.4545454545454546,"channel":9},{"pitch":42,"velocity":20,"time":1712.7272727272727,"duration":0.7272727272727273,"channel":9},{"pitch":42,"velocity":60,"time":1713.4545454545455,"duration":0.7272727272727273,"channel":9},{"pitch":38,"velocity":90,"time":1716,"duration":0.7272727272727273,"channel":9},{"pitch":36,"velocity":120,"time":1718.909090909091,"duration":1.8181818181818183,"channel":9},{"pitch":42,"velocity":20,"time":1720.7272727272727,"duration":1.0909090909090908,"channel":9},{"pitch":42,"velocity":60,"time":1721.8181818181818,"duration":1.4545454545454546,"channel":9},{"pitch":36,"velocity":120,"time":1728,"duration":0.7272727272727273,"channel":9},{"pitch":42,"velocity":60,"time":1729.4545454545455,"duration":0.7272727272727273,"channel":9},{"pitch":38,"velocity":90,"time":1732,"duration":0.7272727272727273,"channel":9},{"pitch":42,"velocity":60,"time":1733.4545454545455,"duration":0.7272727272727273,"channel":9},{"pitch":42,"velocity":20,"time":1734.1818181818182,"duration":0.7272727272727273,"channel":9},{"pitch":36,"velocity":120,"time":1734.909090909091,"duration":1.8181818181818183,"channel":9},{"pitch":38,"velocity":90,"time":1740,"duration":0.7272727272727273,"channel":9},{"pitch":42,"velocity":60,"time":1741.8181818181818,"duration":1.4545454545454546,"channel":9},{"pitch":42,"velocity":20,"time":1744.7272727272727,"duration":0.7272727272727273,"channel":9},{"pitch":42,"velocity":60,"time":1745.4545454545455,"duration":0.7272727272727273,"channel":9},{"pitch":38,"velocity":90,"time":1748,"duration":0.7272727272727273,"channel":9},{"pitch":36,"velocity":120,"time":1750.909090909091,"duration":1.8181818181818183,"channel":9},{"pitch":42,"velocity":20,"time":1752.7272727272727,"duration":1.0909090909090908,"channel":9},{"pitch":42,"velocity":60,"time":1753.8181818181818,"duration":1.4545454545454546,"channel":9},{"pitch":36,"velocity":120,"time":1760,"duration":0.7272727272727273,"channel":9},{"pitch":42,"velocity":60,"time":1761.4545454545455,"duration":0.7272727272727273,"channel":9},{"pitch":38,"velocity":90,"time":1764,"duration":0.7272727272727273,"channel":9},{"pitch":42,"velocity":60,"time":1765.4545454545455,"duration":0.7272727272727273,"channel":9},{"pitch":42,"velocity":20,"time":1766.1818181818182,"duration":0.7272727272727273,"channel":9},{"pitch":36,"velocity":120,"time":1766.909090909091,"duration":1.8181818181818183,"channel":9},{"pitch":38,"velocity":90,"time":1772,"duration":0.7272727272727273,"channel":9},{"pitch":42,"velocity":60,"time":1773.8181818181818,"duration":1.4545454545454546,"channel":9},{"pitch":42,"velocity":20,"time":1776.7272727272727,"duration":0.7272727272727273,"channel":9},{"pitch":42,"velocity":60,"time":1777.4545454545455,"duration":0.7272727272727273,"channel":9},{"pitch":38,"velocity":90,"time":1780,"duration":0.7272727272727273,"channel":9},{"pitch":36,"velocity":120,"time":1782.909090909091,"duration":1.8181818181818183,"channel":9},{"pitch":42,"velocity":20,"time":1784.7272727272727,"duration":1.0909090909090908,"channel":9},{"pitch":42,"velocity":60,"time":1785.8181818181818,"duration":1.4545454545454546,"channel":9},{"pitch":36,"velocity":120,"time":1792,"duration":0.7272727272727273,"channel":9},{"pitch":42,"velocity":60,"time":1793.4545454545455,"duration":0.7272727272727273,"channel":9},{"pitch":38,"velocity":90,"time":1796,"duration":0.7272727272727273,"channel":9},{"pitch":42,"velocity":60,"time":1797.4545454545455,"duration":0.7272727272727273,"channel":9},{"pitch":42,"velocity":20,"time":1798.1818181818182,"duration":0.7272727272727273,"channel":9},{"pitch":36,"velocity":120,"time":1798.909090909091,"duration":1.8181818181818183,"channel":9},{"pitch":38,"velocity":90,"time":1804,"duration":0.7272727272727273,"channel":9},{"pitch":42,"velocity":60,"time":1805.8181818181818,"duration":1.4545454545454546,"channel":9},{"pitch":42,"velocity":20,"time":1808.7272727272727,"duration":0.7272727272727273,"channel":9},{"pitch":42,"velocity":60,"time":1809.4545454545455,"duration":0.7272727272727273,"channel":9},{"pitch":38,"velocity":90,"time":1812,"duration":0.7272727272727273,"channel":9},{"pitch":36,"velocity":120,"time":1814.909090909091,"duration":1.8181818181818183,"channel":9},{"pitch":42,"velocity":20,"time":1816.7272727272727,"duration":1.0909090909090908,"channel":9},{"pitch":42,"velocity":60,"time":1817.8181818181818,"duration":1.4545454545454546,"channel":9},{"pitch":36,"velocity":120,"time":1824,"duration":0.7272727272727273,"channel":9},{"pitch":42,"velocity":60,"time":1825.4545454545455,"duration":0.7272727272727273,"channel":9},{"pitch":38,"velocity":90,"time":1828,"duration":0.7272727272727273,"channel":9},{"pitch":42,"velocity":60,"time":1829.4545454545455,"duration":0.7272727272727273,"channel":9},{"pitch":42,"velocity":20,"time":1830.1818181818182,"duration":0.7272727272727273,"channel":9},{"pitch":36,"velocity":120,"time":1830.909090909091,"duration":1.8181818181818183,"channel":9},{"pitch":38,"velocity":90,"time":1836,"duration":0.7272727272727273,"channel":9},{"pitch":42,"velocity":60,"time":1837.8181818181818,"duration":1.4545454545454546,"channel":9},{"pitch":42,"velocity":20,"time":1840.7272727272727,"duration":0.7272727272727273,"channel":9},{"pitch":42,"velocity":60,"time":1841.4545454545455,"duration":0.7272727272727273,"channel":9},{"pitch":38,"velocity":90,"time":1844,"duration":0.7272727272727273,"channel":9},{"pitch":36,"velocity":120,"time":1846.909090909091,"duration":1.8181818181818183,"channel":9},{"pitch":42,"velocity":20,"time":1848.7272727272727,"duration":1.0909090909090908,"channel":9},{"pitch":42,"velocity":60,"time":1849.8181818181818,"duration":1.4545454545454546,"channel":9},{"pitch":36,"velocity":120,"time":1856,"duration":0.7272727272727273,"channel":9},{"pitch":42,"velocity":60,"time":1857.4545454545455,"duration":0.7272727272727273,"channel":9},{"pitch":38,"velocity":90,"time":1860,"duration":0.7272727272727273,"channel":9},{"pitch":42,"velocity":60,"time":1861.4545454545455,"duration":0.7272727272727273,"channel":9},{"pitch":42,"velocity":20,"time":1862.1818181818182,"duration":0.7272727272727273,"channel":9},{"pitch":36,"velocity":120,"time":1862.909090909091,"duration":1.8181818181818183,"channel":9},{"pitch":38,"velocity":90,"time":1868,"duration":0.7272727272727273,"channel":9},{"pitch":42,"velocity":60,"time":1869.8181818181818,"duration":1.4545454545454546,"channel":9},{"pitch":42,"velocity":20,"time":1872.7272727272727,"duration":0.7272727272727273,"channel":9},{"pitch":42,"velocity":60,"time":1873.4545454545455,"duration":0.7272727272727273,"channel":9},{"pitch":38,"velocity":90,"time":1876,"duration":0.7272727272727273,"channel":9},{"pitch":36,"velocity":120,"time":1878.909090909091,"duration":1.8181818181818183,"channel":9},{"pitch":42,"velocity":20,"time":1880.7272727272727,"duration":1.0909090909090908,"channel":9},{"pitch":42,"velocity":60,"time":1881.8181818181818,"duration":1.4545454545454546,"channel":9},{"pitch":36,"velocity":120,"time":1888,"duration":0.7272727272727273,"channel":9},{"pitch":42,"velocity":60,"time":1889.4545454545455,"duration":0.7272727272727273,"channel":9},{"pitch":38,"velocity":90,"time":1892,"duration":0.7272727272727273,"channel":9},{"pitch":42,"velocity":60,"time":1893.4545454545455,"duration":0.7272727272727273,"channel":9},{"pitch":42,"velocity":20,"time":1894.1818181818182,"duration":0.7272727272727273,"channel":9},{"pitch":36,"velocity":120,"time":1894.909090909091,"duration":1.8181818181818183,"channel":9},{"pitch":38,"velocity":90,"time":1900,"duration":0.7272727272727273,"channel":9},{"pitch":42,"velocity":60,"time":1901.8181818181818,"duration":1.4545454545454546,"channel":9},{"pitch":42,"velocity":20,"time":1904.7272727272727,"duration":0.7272727272727273,"channel":9},{"pitch":42,"velocity":60,"time":1905.4545454545455,"duration":0.7272727272727273,"channel":9},{"pitch":38,"velocity":90,"time":1908,"duration":0.7272727272727273,"channel":9},{"pitch":36,"velocity":120,"time":1910.909090909091,"duration":1.8181818181818183,"channel":9},{"pitch":42,"velocity":20,"time":1912.7272727272727,"duration":1.0909090909090908,"channel":9},{"pitch":42,"velocity":60,"time":1913.8181818181818,"duration":1.4545454545454546,"channel":9},{"pitch":36,"velocity":120,"time":1920,"duration":0.7272727272727273,"channel":9},{"pitch":42,"velocity":60,"time":1921.4545454545455,"duration":0.7272727272727273,"channel":9},{"pitch":38,"velocity":90,"time":1924,"duration":0.7272727272727273,"channel":9},{"pitch":42,"velocity":60,"time":1925.4545454545455,"duration":0.7272727272727273,"channel":9},{"pitch":42,"velocity":20,"time":1926.1818181818182,"duration":0.7272727272727273,"channel":9},{"pitch":36,"velocity":120,"time":1926.909090909091,"duration":1.8181818181818183,"channel":9},{"pitch":38,"velocity":90,"time":1932,"duration":0.7272727272727273,"channel":9},{"pitch":42,"velocity":60,"time":1933.8181818181818,"duration":1.4545454545454546,"channel":9},{"pitch":42,"velocity":20,"time":1936.7272727272727,"duration":0.7272727272727273,"channel":9},{"pitch":42,"velocity":60,"time":1937.4545454545455,"duration":0.7272727272727273,"channel":9},{"pitch":38,"velocity":90,"time":1940,"duration":0.7272727272727273,"channel":9},{"pitch":36,"velocity":120,"time":1942.909090909091,"duration":1.8181818181818183,"channel":9},{"pitch":42,"velocity":20,"time":1944.7272727272727,"duration":1.0909090909090908,"channel":9},{"pitch":42,"velocity":60,"time":1945.8181818181818,"duration":1.4545454545454546,"channel":9},{"pitch":36,"velocity":120,"time":1952,"duration":0.7272727272727273,"channel":9},{"pitch":42,"velocity":60,"time":1953.4545454545455,"duration":0.7272727272727273,"channel":9},{"pitch":38,"velocity":90,"time":1956,"duration":0.7272727272727273,"channel":9},{"pitch":42,"velocity":60,"time":1957.4545454545455,"duration":0.7272727272727273,"channel":9},{"pitch":42,"velocity":20,"time":1958.1818181818182,"duration":0.7272727272727273,"channel":9},{"pitch":36,"velocity":120,"time":1958.909090909091,"duration":1.8181818181818183,"channel":9},{"pitch":38,"velocity":90,"time":1964,"duration":0.7272727272727273,"channel":9},{"pitch":42,"velocity":60,"time":1965.8181818181818,"duration":1.4545454545454546,"channel":9},{"pitch":42,"velocity":20,"time":1968.7272727272727,"duration":0.7272727272727273,"channel":9},{"pitch":42,"velocity":60,"time":1969.4545454545455,"duration":0.7272727272727273,"channel":9},{"pitch":38,"velocity":90,"time":1972,"duration":0.7272727272727273,"channel":9},{"pitch":36,"velocity":120,"time":1974.909090909091,"duration":1.8181818181818183,"channel":9},{"pitch":42,"velocity":20,"time":1976.7272727272727,"duration":1.0909090909090908,"channel":9},{"pitch":42,"velocity":60,"time":1977.8181818181818,"duration":1.4545454545454546,"channel":9},{"pitch":36,"velocity":120,"time":1984,"duration":0.7272727272727273,"channel":9},{"pitch":42,"velocity":60,"time":1985.4545454545455,"duration":0.7272727272727273,"channel":9},{"pitch":38,"velocity":90,"time":1988,"duration":0.7272727272727273,"channel":9},{"pitch":42,"velocity":60,"time":1989.4545454545455,"duration":0.7272727272727273,"channel":9},{"pitch":42,"velocity":20,"time":1990.1818181818182,"duration":0.7272727272727273,"channel":9},{"pitch":36,"velocity":120,"time":1990.909090909091,"duration":1.8181818181818183,"channel":9},{"pitch":38,"velocity":90,"time":1996,"duration":0.7272727272727273,"channel":9},{"pitch":42,"velocity":60,"time":1997.8181818181818,"duration":1.4545454545454546,"channel":9},{"pitch":42,"velocity":20,"time":2000.7272727272727,"duration":0.7272727272727273,"channel":9},{"pitch":42,"velocity":60,"time":2001.4545454545455,"duration":0.7272727272727273,"channel":9},{"pitch":38,"velocity":90,"time":2004,"duration":0.7272727272727273,"channel":9},{"pitch":36,"velocity":120,"time":2006.909090909091,"duration":1.8181818181818183,"channel":9},{"pitch":42,"velocity":20,"time":2008.7272727272727,"duration":1.0909090909090908,"channel":9},{"pitch":42,"velocity":60,"time":2009.8181818181818,"duration":1.4545454545454546,"channel":9},{"pitch":36,"velocity":120,"time":2016,"duration":0.7272727272727273,"channel":9},{"pitch":42,"velocity":60,"time":2017.4545454545455,"duration":0.7272727272727273,"channel":9},{"pitch":38,"velocity":90,"time":2020,"duration":0.7272727272727273,"channel":9},{"pitch":42,"velocity":60,"time":2021.4545454545455,"duration":0.7272727272727273,"channel":9},{"pitch":42,"velocity":20,"time":2022.1818181818182,"duration":0.7272727272727273,"channel":9},{"pitch":36,"velocity":120,"time":2022.909090909091,"duration":1.8181818181818183,"channel":9},{"pitch":38,"velocity":90,"time":2028,"duration":0.7272727272727273,"channel":9},{"pitch":42,"velocity":60,"time":2029.8181818181818,"duration":1.4545454545454546,"channel":9},{"pitch":42,"velocity":20,"time":2032.7272727272727,"duration":0.7272727272727273,"channel":9},{"pitch":42,"velocity":60,"time":2033.4545454545455,"duration":0.7272727272727273,"channel":9},{"pitch":38,"velocity":90,"time":2036,"duration":0.7272727272727273,"channel":9},{"pitch":36,"velocity":120,"time":2038.909090909091,"duration":1.8181818181818183,"channel":9},{"pitch":42,"velocity":20,"time":2040.7272727272727,"duration":1.0909090909090908,"channel":9},{"pitch":42,"velocity":60,"time":2041.8181818181818,"duration":1.4545454545454546,"channel":9},{"pitch":36,"velocity":120,"time":2048,"duration":0.7272727272727273,"channel":9},{"pitch":42,"velocity":60,"time":2049.4545454545455,"duration":0.7272727272727273,"channel":9},{"pitch":38,"velocity":90,"time":2052,"duration":0.7272727272727273,"channel":9},{"pitch":42,"velocity":60,"time":2053.4545454545455,"duration":0.7272727272727273,"channel":9},{"pitch":42,"velocity":20,"time":2054.181818181818,"duration":0.7272727272727273,"channel":9},{"pitch":36,"velocity":120,"time":2054.909090909091,"duration":1.8181818181818183,"channel":9},{"pitch":38,"velocity":90,"time":2060,"duration":0.7272727272727273,"channel":9},{"pitch":42,"velocity":60,"time":2061.818181818182,"duration":1.4545454545454546,"channel":9},{"pitch":42,"velocity":20,"time":2064.7272727272725,"duration":0.7272727272727273,"channel":9},{"pitch":42,"velocity":60,"time":2065.4545454545455,"duration":0.7272727272727273,"channel":9},{"pitch":38,"velocity":90,"time":2068,"duration":0.7272727272727273,"channel":9},{"pitch":36,"velocity":120,"time":2070.909090909091,"duration":1.8181818181818183,"channel":9},{"pitch":42,"velocity":20,"time":2072.7272727272725,"duration":1.0909090909090908,"channel":9},{"pitch":42,"velocity":60,"time":2073.818181818182,"duration":1.4545454545454546,"channel":9},{"pitch":36,"velocity":120,"time":2080,"duration":0.7272727272727273,"channel":9},{"pitch":42,"velocity":60,"time":2081.4545454545455,"duration":0.7272727272727273,"channel":9},{"pitch":38,"velocity":90,"time":2084,"duration":0.7272727272727273,"channel":9},{"pitch":42,"velocity":60,"time":2085.4545454545455,"duration":0.7272727272727273,"channel":9},{"pitch":42,"velocity":20,"time":2086.181818181818,"duration":0.7272727272727273,"channel":9},{"pitch":36,"velocity":120,"time":2086.909090909091,"duration":1.8181818181818183,"channel":9},{"pitch":38,"velocity":90,"time":2092,"duration":0.7272727272727273,"channel":9},{"pitch":42,"velocity":60,"time":2093.818181818182,"duration":1.4545454545454546,"channel":9},{"pitch":42,"velocity":20,"time":2096.7272727272725,"duration":0.7272727272727273,"channel":9},{"pitch":42,"velocity":60,"time":2097.4545454545455,"duration":0.7272727272727273,"channel":9},{"pitch":38,"velocity":90,"time":2100,"duration":0.7272727272727273,"channel":9},{"pitch":36,"velocity":120,"time":2102.909090909091,"duration":1.8181818181818183,"channel":9},{"pitch":42,"velocity":20,"time":2104.7272727272725,"duration":1.0909090909090908,"channel":9},{"pitch":42,"velocity":60,"time":2105.818181818182,"duration":1.4545454545454546,"channel":9},{"pitch":36,"velocity":120,"time":2112,"duration":0.7272727272727273,"channel":9},{"pitch":42,"velocity":60,"time":2113.4545454545455,"duration":0.7272727272727273,"channel":9},{"pitch":38,"velocity":90,"time":2116,"duration":0.7272727272727273,"channel":9},{"pitch":42,"velocity":60,"time":2117.4545454545455,"duration":0.7272727272727273,"channel":9},{"pitch":42,"velocity":20,"time":2118.181818181818,"duration":0.7272727272727273,"channel":9},{"pitch":36,"velocity":120,"time":2118.909090909091,"duration":1.8181818181818183,"channel":9},{"pitch":38,"velocity":90,"time":2124,"duration":0.7272727272727273,"channel":9},{"pitch":42,"velocity":60,"time":2125.818181818182,"duration":1.4545454545454546,"channel":9},{"pitch":42,"velocity":20,"time":2128.7272727272725,"duration":0.7272727272727273,"channel":9},{"pitch":42,"velocity":60,"time":2129.4545454545455,"duration":0.7272727272727273,"channel":9},{"pitch":38,"velocity":90,"time":2132,"duration":0.7272727272727273,"channel":9},{"pitch":36,"velocity":120,"time":2134.909090909091,"duration":1.8181818181818183,"channel":9},{"pitch":42,"velocity":20,"time":2136.7272727272725,"duration":1.0909090909090908,"channel":9},{"pitch":42,"velocity":60,"time":2137.818181818182,"duration":1.4545454545454546,"channel":9},{"pitch":36,"velocity":120,"time":2144,"duration":0.7272727272727273,"channel":9},{"pitch":42,"velocity":60,"time":2145.4545454545455,"duration":0.7272727272727273,"channel":9},{"pitch":38,"velocity":90,"time":2148,"duration":0.7272727272727273,"channel":9},{"pitch":42,"velocity":60,"time":2149.4545454545455,"duration":0.7272727272727273,"channel":9},{"pitch":42,"velocity":20,"time":2150.181818181818,"duration":0.7272727272727273,"channel":9},{"pitch":36,"velocity":120,"time":2150.909090909091,"duration":1.8181818181818183,"channel":9},{"pitch":38,"velocity":90,"time":2156,"duration":0.7272727272727273,"channel":9},{"pitch":42,"velocity":60,"time":2157.818181818182,"duration":1.4545454545454546,"channel":9},{"pitch":42,"velocity":20,"time":2160.7272727272725,"duration":0.7272727272727273,"channel":9},{"pitch":42,"velocity":60,"time":2161.4545454545455,"duration":0.7272727272727273,"channel":9},{"pitch":38,"velocity":90,"time":2164,"duration":0.7272727272727273,"channel":9},{"pitch":36,"velocity":120,"time":2166.909090909091,"duration":1.8181818181818183,"channel":9},{"pitch":42,"velocity":20,"time":2168.7272727272725,"duration":1.0909090909090908,"channel":9},{"pitch":42,"velocity":60,"time":2169.818181818182,"duration":1.4545454545454546,"channel":9},{"pitch":36,"velocity":120,"time":2176,"duration":0.7272727272727273,"channel":9},{"pitch":42,"velocity":60,"time":2177.4545454545455,"duration":0.7272727272727273,"channel":9},{"pitch":38,"velocity":90,"time":2180,"duration":0.7272727272727273,"channel":9},{"pitch":42,"velocity":60,"time":2181.4545454545455,"duration":0.7272727272727273,"channel":9},{"pitch":42,"velocity":20,"time":2182.181818181818,"duration":0.7272727272727273,"channel":9},{"pitch":36,"velocity":120,"time":2182.909090909091,"duration":1.8181818181818183,"channel":9},{"pitch":38,"velocity":90,"time":2188,"duration":0.7272727272727273,"channel":9},{"pitch":42,"velocity":60,"time":2189.818181818182,"duration":1.4545454545454546,"channel":9},{"pitch":42,"velocity":20,"time":2192.7272727272725,"duration":0.7272727272727273,"channel":9},{"pitch":42,"velocity":60,"time":2193.4545454545455,"duration":0.7272727272727273,"channel":9},{"pitch":38,"velocity":90,"time":2196,"duration":0.7272727272727273,"channel":9},{"pitch":36,"velocity":120,"time":2198.909090909091,"duration":1.8181818181818183,"channel":9},{"pitch":42,"velocity":20,"time":2200.7272727272725,"duration":1.0909090909090908,"channel":9},{"pitch":42,"velocity":60,"time":2201.818181818182,"duration":1.4545454545454546,"channel":9},{"pitch":36,"velocity":120,"time":2208,"duration":0.7272727272727273,"channel":9},{"pitch":42,"velocity":60,"time":2209.4545454545455,"duration":0.7272727272727273,"channel":9},{"pitch":38,"velocity":90,"time":2212,"duration":0.7272727272727273,"channel":9},{"pitch":42,"velocity":60,"time":2213.4545454545455,"duration":0.7272727272727273,"channel":9},{"pitch":42,"velocity":20,"time":2214.181818181818,"duration":0.7272727272727273,"channel":9},{"pitch":36,"velocity":120,"time":2214.909090909091,"duration":1.8181818181818183,"channel":9},{"pitch":38,"velocity":90,"time":2220,"duration":0.7272727272727273,"channel":9},{"pitch":42,"velocity":60,"time":2221.818181818182,"duration":1.4545454545454546,"channel":9},{"pitch":42,"velocity":20,"time":2224.7272727272725,"duration":0.7272727272727273,"channel":9},{"pitch":42,"velocity":60,"time":2225.4545454545455,"duration":0.7272727272727273,"channel":9},{"pitch":38,"velocity":90,"time":2228,"duration":0.7272727272727273,"channel":9},{"pitch":36,"velocity":120,"time":2230.909090909091,"duration":1.8181818181818183,"channel":9},{"pitch":42,"velocity":20,"time":2232.7272727272725,"duration":1.0909090909090908,"channel":9},{"pitch":42,"velocity":60,"time":2233.818181818182,"duration":1.4545454545454546,"channel":9},{"pitch":36,"velocity":120,"time":2240,"duration":0.7272727272727273,"channel":9},{"pitch":42,"velocity":60,"time":2241.4545454545455,"duration":0.7272727272727273,"channel":9},{"pitch":38,"velocity":90,"time":2244,"duration":0.7272727272727273,"channel":9},{"pitch":42,"velocity":60,"time":2245.4545454545455,"duration":0.7272727272727273,"channel":9},{"pitch":42,"velocity":20,"time":2246.181818181818,"duration":0.7272727272727273,"channel":9},{"pitch":36,"velocity":120,"time":2246.909090909091,"duration":1.8181818181818183,"channel":9},{"pitch":38,"velocity":90,"time":2252,"duration":0.7272727272727273,"channel":9},{"pitch":42,"velocity":60,"time":2253.818181818182,"duration":1.4545454545454546,"channel":9},{"pitch":42,"velocity":20,"time":2256.7272727272725,"duration":0.7272727272727273,"channel":9},{"pitch":42,"velocity":60,"time":2257.4545454545455,"duration":0.7272727272727273,"channel":9},{"pitch":38,"velocity":90,"time":2260,"duration":0.7272727272727273,"channel":9},{"pitch":36,"velocity":120,"time":2262.909090909091,"duration":1.8181818181818183,"channel":9},{"pitch":42,"velocity":20,"time":2264.7272727272725,"duration":1.0909090909090908,"channel":9},{"pitch":42,"velocity":60,"time":2265.818181818182,"duration":1.4545454545454546,"channel":9},{"pitch":36,"velocity":120,"time":2272,"duration":0.7272727272727273,"channel":9},{"pitch":42,"velocity":60,"time":2273.4545454545455,"duration":0.7272727272727273,"channel":9},{"pitch":38,"velocity":90,"time":2276,"duration":0.7272727272727273,"channel":9},{"pitch":42,"velocity":60,"time":2277.4545454545455,"duration":0.7272727272727273,"channel":9},{"pitch":42,"velocity":20,"time":2278.181818181818,"duration":0.7272727272727273,"channel":9},{"pitch":36,"velocity":120,"time":2278.909090909091,"duration":1.8181818181818183,"channel":9},{"pitch":38,"velocity":90,"time":2284,"duration":0.7272727272727273,"channel":9},{"pitch":42,"velocity":60,"time":2285.818181818182,"duration":1.4545454545454546,"channel":9},{"pitch":42,"velocity":20,"time":2288.7272727272725,"duration":0.7272727272727273,"channel":9},{"pitch":42,"velocity":60,"time":2289.4545454545455,"duration":0.7272727272727273,"channel":9},{"pitch":38,"velocity":90,"time":2292,"duration":0.7272727272727273,"channel":9},{"pitch":36,"velocity":120,"time":2294.909090909091,"duration":1.8181818181818183,"channel":9},{"pitch":42,"velocity":20,"time":2296.7272727272725,"duration":1.0909090909090908,"channel":9},{"pitch":42,"velocity":60,"time":2297.818181818182,"duration":1.4545454545454546,"channel":9},{"pitch":36,"velocity":120,"time":2304,"duration":0.7272727272727273,"channel":9},{"pitch":42,"velocity":60,"time":2305.4545454545455,"duration":0.7272727272727273,"channel":9},{"pitch":38,"velocity":90,"time":2308,"duration":0.7272727272727273,"channel":9},{"pitch":42,"velocity":60,"time":2309.4545454545455,"duration":0.7272727272727273,"channel":9},{"pitch":42,"velocity":20,"time":2310.181818181818,"duration":0.7272727272727273,"channel":9},{"pitch":36,"velocity":120,"time":2310.909090909091,"duration":1.8181818181818183,"channel":9},{"pitch":38,"velocity":90,"time":2316,"duration":0.7272727272727273,"channel":9},{"pitch":42,"velocity":60,"time":2317.818181818182,"duration":1.4545454545454546,"channel":9},{"pitch":42,"velocity":20,"time":2320.7272727272725,"duration":0.7272727272727273,"channel":9},{"pitch":42,"velocity":60,"time":2321.4545454545455,"duration":0.7272727272727273,"channel":9},{"pitch":38,"velocity":90,"time":2324,"duration":0.7272727272727273,"channel":9},{"pitch":36,"velocity":120,"time":2326.909090909091,"duration":1.8181818181818183,"channel":9},{"pitch":42,"velocity":20,"time":2328.7272727272725,"duration":1.0909090909090908,"channel":9},{"pitch":42,"velocity":60,"time":2329.818181818182,"duration":1.4545454545454546,"channel":9},{"pitch":36,"velocity":120,"time":2336,"duration":0.7272727272727273,"channel":9},{"pitch":42,"velocity":60,"time":2337.4545454545455,"duration":0.7272727272727273,"channel":9},{"pitch":38,"velocity":90,"time":2340,"duration":0.7272727272727273,"channel":9},{"pitch":42,"velocity":60,"time":2341.4545454545455,"duration":0.7272727272727273,"channel":9},{"pitch":42,"velocity":20,"time":2342.181818181818,"duration":0.7272727272727273,"channel":9},{"pitch":36,"velocity":120,"time":2342.909090909091,"duration":1.8181818181818183,"channel":9},{"pitch":38,"velocity":90,"time":2348,"duration":0.7272727272727273,"channel":9},{"pitch":42,"velocity":60,"time":2349.818181818182,"duration":1.4545454545454546,"channel":9},{"pitch":42,"velocity":20,"time":2352.7272727272725,"duration":0.7272727272727273,"channel":9},{"pitch":42,"velocity":60,"time":2353.4545454545455,"duration":0.7272727272727273,"channel":9},{"pitch":38,"velocity":90,"time":2356,"duration":0.7272727272727273,"channel":9},{"pitch":36,"velocity":120,"time":2358.909090909091,"duration":1.8181818181818183,"channel":9},{"pitch":42,"velocity":20,"time":2360.7272727272725,"duration":1.0909090909090908,"channel":9},{"pitch":42,"velocity":60,"time":2361.818181818182,"duration":1.4545454545454546,"channel":9},{"pitch":36,"velocity":120,"time":2368,"duration":0.7272727272727273,"channel":9},{"pitch":42,"velocity":60,"time":2369.4545454545455,"duration":0.7272727272727273,"channel":9},{"pitch":38,"velocity":90,"time":2372,"duration":0.7272727272727273,"channel":9},{"pitch":42,"velocity":60,"time":2373.4545454545455,"duration":0.7272727272727273,"channel":9},{"pitch":42,"velocity":20,"time":2374.181818181818,"duration":0.7272727272727273,"channel":9},{"pitch":36,"velocity":120,"time":2374.909090909091,"duration":1.8181818181818183,"channel":9},{"pitch":38,"velocity":90,"time":2380,"duration":0.7272727272727273,"channel":9},{"pitch":42,"velocity":60,"time":2381.818181818182,"duration":1.4545454545454546,"channel":9},{"pitch":42,"velocity":20,"time":2384.7272727272725,"duration":0.7272727272727273,"channel":9},{"pitch":42,"velocity":60,"time":2385.4545454545455,"duration":0.7272727272727273,"channel":9},{"pitch":38,"velocity":90,"time":2388,"duration":0.7272727272727273,"channel":9},{"pitch":36,"velocity":120,"time":2390.909090909091,"duration":1.8181818181818183,"channel":9},{"pitch":42,"velocity":20,"time":2392.7272727272725,"duration":1.0909090909090908,"channel":9},{"pitch":42,"velocity":60,"time":2393.818181818182,"duration":1.4545454545454546,"channel":9},{"pitch":36,"velocity":120,"time":2400,"duration":0.7272727272727273,"channel":9},{"pitch":42,"velocity":60,"time":2401.4545454545455,"duration":0.7272727272727273,"channel":9},{"pitch":38,"velocity":90,"time":2404,"duration":0.7272727272727273,"channel":9},{"pitch":42,"velocity":60,"time":2405.4545454545455,"duration":0.7272727272727273,"channel":9},{"pitch":42,"velocity":20,"time":2406.181818181818,"duration":0.7272727272727273,"channel":9},{"pitch":36,"velocity":120,"time":2406.909090909091,"duration":1.8181818181818183,"channel":9},{"pitch":38,"velocity":90,"time":2412,"duration":0.7272727272727273,"channel":9},{"pitch":42,"velocity":60,"time":2413.818181818182,"duration":1.4545454545454546,"channel":9},{"pitch":42,"velocity":20,"time":2416.7272727272725,"duration":0.7272727272727273,"channel":9},{"pitch":42,"velocity":60,"time":2417.4545454545455,"duration":0.7272727272727273,"channel":9},{"pitch":38,"velocity":90,"time":2420,"duration":0.7272727272727273,"channel":9},{"pitch":36,"velocity":120,"time":2422.909090909091,"duration":1.8181818181818183,"channel":9},{"pitch":42,"velocity":20,"time":2424.7272727272725,"duration":1.0909090909090908,"channel":9},{"pitch":42,"velocity":60,"time":2425.818181818182,"duration":1.4545454545454546,"channel":9},{"pitch":36,"velocity":120,"time":2432,"duration":0.7272727272727273,"channel":9},{"pitch":42,"velocity":60,"time":2433.4545454545455,"duration":0.7272727272727273,"channel":9},{"pitch":38,"velocity":90,"time":2436,"duration":0.7272727272727273,"channel":9},{"pitch":42,"velocity":60,"time":2437.4545454545455,"duration":0.7272727272727273,"channel":9},{"pitch":42,"velocity":20,"time":2438.181818181818,"duration":0.7272727272727273,"channel":9},{"pitch":36,"velocity":120,"time":2438.909090909091,"duration":1.8181818181818183,"channel":9},{"pitch":38,"velocity":90,"time":2444,"duration":0.7272727272727273,"channel":9},{"pitch":42,"velocity":60,"time":2445.818181818182,"duration":1.4545454545454546,"channel":9},{"pitch":42,"velocity":20,"time":2448.7272727272725,"duration":0.7272727272727273,"channel":9},{"pitch":42,"velocity":60,"time":2449.4545454545455,"duration":0.7272727272727273,"channel":9},{"pitch":38,"velocity":90,"time":2452,"duration":0.7272727272727273,"channel":9},{"pitch":36,"velocity":120,"time":2454.909090909091,"duration":1.8181818181818183,"channel":9},{"pitch":42,"velocity":20,"time":2456.7272727272725,"duration":1.0909090909090908,"channel":9},{"pitch":42,"velocity":60,"time":2457.818181818182,"duration":1.4545454545454546,"channel":9},{"pitch":36,"velocity":120,"time":2464,"duration":0.7272727272727273,"channel":9},{"pitch":42,"velocity":60,"time":2465.4545454545455,"duration":0.7272727272727273,"channel":9},{"pitch":38,"velocity":90,"time":2468,"duration":0.7272727272727273,"channel":9},{"pitch":42,"velocity":60,"time":2469.4545454545455,"duration":0.7272727272727273,"channel":9},{"pitch":42,"velocity":20,"time":2470.181818181818,"duration":0.7272727272727273,"channel":9},{"pitch":36,"velocity":120,"time":2470.909090909091,"duration":1.8181818181818183,"channel":9},{"pitch":38,"velocity":90,"time":2476,"duration":0.7272727272727273,"channel":9},{"pitch":42,"velocity":60,"time":2477.818181818182,"duration":1.4545454545454546,"channel":9},{"pitch":42,"velocity":20,"time":2480.7272727272725,"duration":0.7272727272727273,"channel":9},{"pitch":42,"velocity":60,"time":2481.4545454545455,"duration":0.7272727272727273,"channel":9},{"pitch":38,"velocity":90,"time":2484,"duration":0.7272727272727273,"channel":9},{"pitch":36,"velocity":120,"time":2486.909090909091,"duration":1.8181818181818183,"channel":9},{"pitch":42,"velocity":20,"time":2488.7272727272725,"duration":1.0909090909090908,"channel":9},{"pitch":42,"velocity":60,"time":2489.818181818182,"duration":1.4545454545454546,"channel":9},{"pitch":36,"velocity":120,"time":2496,"duration":0.7272727272727273,"channel":9},{"pitch":42,"velocity":60,"time":2497.4545454545455,"duration":0.7272727272727273,"channel":9},{"pitch":38,"velocity":90,"time":2500,"duration":0.7272727272727273,"channel":9},{"pitch":42,"velocity":60,"time":2501.4545454545455,"duration":0.7272727272727273,"channel":9},{"pitch":42,"velocity":20,"time":2502.181818181818,"duration":0.7272727272727273,"channel":9},{"pitch":36,"velocity":120,"time":2502.909090909091,"duration":1.8181818181818183,"channel":9},{"pitch":38,"velocity":90,"time":2508,"duration":0.7272727272727273,"channel":9},{"pitch":42,"velocity":60,"time":2509.818181818182,"duration":1.4545454545454546,"channel":9},{"pitch":42,"velocity":20,"time":2512.7272727272725,"duration":0.7272727272727273,"channel":9},{"pitch":42,"velocity":60,"time":2513.4545454545455,"duration":0.7272727272727273,"channel":9},{"pitch":38,"velocity":90,"time":2516,"duration":0.7272727272727273,"channel":9},{"pitch":36,"velocity":120,"time":2518.909090909091,"duration":1.8181818181818183,"channel":9},{"pitch":42,"velocity":20,"time":2520.7272727272725,"duration":1.0909090909090908,"channel":9},{"pitch":42,"velocity":60,"time":2521.818181818182,"duration":1.4545454545454546,"channel":9},{"pitch":36,"velocity":120,"time":2528,"duration":0.7272727272727273,"channel":9},{"pitch":42,"velocity":60,"time":2529.4545454545455,"duration":0.7272727272727273,"channel":9},{"pitch":38,"velocity":90,"time":2532,"duration":0.7272727272727273,"channel":9},{"pitch":42,"velocity":60,"time":2533.4545454545455,"duration":0.7272727272727273,"channel":9},{"pitch":42,"velocity":20,"time":2534.181818181818,"duration":0.7272727272727273,"channel":9},{"pitch":36,"velocity":120,"time":2534.909090909091,"duration":1.8181818181818183,"channel":9},{"pitch":38,"velocity":90,"time":2540,"duration":0.7272727272727273,"channel":9},{"pitch":42,"velocity":60,"time":2541.818181818182,"duration":1.4545454545454546,"channel":9},{"pitch":42,"velocity":20,"time":2544.7272727272725,"duration":0.7272727272727273,"channel":9},{"pitch":42,"velocity":60,"time":2545.4545454545455,"duration":0.7272727272727273,"channel":9},{"pitch":38,"velocity":90,"time":2548,"duration":0.7272727272727273,"channel":9},{"pitch":36,"velocity":120,"time":2550.909090909091,"duration":1.8181818181818183,"channel":9},{"pitch":42,"velocity":20,"time":2552.7272727272725,"duration":1.0909090909090908,"channel":9},{"pitch":42,"velocity":60,"time":2553.818181818182,"duration":1.4545454545454546,"channel":9},{"pitch":36,"velocity":120,"time":2560,"duration":0.7272727272727273,"channel":9},{"pitch":42,"velocity":60,"time":2561.4545454545455,"duration":0.7272727272727273,"channel":9},{"pitch":38,"velocity":90,"time":2564,"duration":0.7272727272727273,"channel":9},{"pitch":42,"velocity":60,"time":2565.4545454545455,"duration":0.7272727272727273,"channel":9},{"pitch":42,"velocity":20,"time":2566.181818181818,"duration":0.7272727272727273,"channel":9},{"pitch":36,"velocity":120,"time":2566.909090909091,"duration":1.8181818181818183,"channel":9},{"pitch":38,"velocity":90,"time":2572,"duration":0.7272727272727273,"channel":9},{"pitch":42,"velocity":60,"time":2573.818181818182,"duration":1.4545454545454546,"channel":9},{"pitch":42,"velocity":20,"time":2576.7272727272725,"duration":0.7272727272727273,"channel":9},{"pitch":42,"velocity":60,"time":2577.4545454545455,"duration":0.7272727272727273,"channel":9},{"pitch":38,"velocity":90,"time":2580,"duration":0.7272727272727273,"channel":9},{"pitch":36,"velocity":120,"time":2582.909090909091,"duration":1.8181818181818183,"channel":9},{"pitch":42,"velocity":20,"time":2584.7272727272725,"duration":1.0909090909090908,"channel":9},{"pitch":42,"velocity":60,"time":2585.818181818182,"duration":1.4545454545454546,"channel":9},{"pitch":36,"velocity":120,"time":2592,"duration":0.7272727272727273,"channel":9},{"pitch":42,"velocity":60,"time":2593.4545454545455,"duration":0.7272727272727273,"channel":9},{"pitch":38,"velocity":90,"time":2596,"duration":0.7272727272727273,"channel":9},{"pitch":42,"velocity":60,"time":2597.4545454545455,"duration":0.7272727272727273,"channel":9},{"pitch":42,"velocity":20,"time":2598.181818181818,"duration":0.7272727272727273,"channel":9},{"pitch":36,"velocity":120,"time":2598.909090909091,"duration":1.8181818181818183,"channel":9},{"pitch":38,"velocity":90,"time":2604,"duration":0.7272727272727273,"channel":9},{"pitch":42,"velocity":60,"time":2605.818181818182,"duration":1.4545454545454546,"channel":9},{"pitch":42,"velocity":20,"time":2608.7272727272725,"duration":0.7272727272727273,"channel":9},{"pitch":42,"velocity":60,"time":2609.4545454545455,"duration":0.7272727272727273,"channel":9},{"pitch":38,"velocity":90,"time":2612,"duration":0.7272727272727273,"channel":9},{"pitch":36,"velocity":120,"time":2614.909090909091,"duration":1.8181818181818183,"channel":9},{"pitch":42,"velocity":20,"time":2616.7272727272725,"duration":1.0909090909090908,"channel":9},{"pitch":42,"velocity":60,"time":2617.818181818182,"duration":1.4545454545454546,"channel":9},{"pitch":36,"velocity":120,"time":2624,"duration":0.7272727272727273,"channel":9},{"pitch":42,"velocity":60,"time":2625.4545454545455,"duration":0.7272727272727273,"channel":9},{"pitch":38,"velocity":90,"time":2628,"duration":0.7272727272727273,"channel":9},{"pitch":42,"velocity":60,"time":2629.4545454545455,"duration":0.7272727272727273,"channel":9},{"pitch":42,"velocity":20,"time":2630.181818181818,"duration":0.7272727272727273,"channel":9},{"pitch":36,"velocity":120,"time":2630.909090909091,"duration":1.8181818181818183,"channel":9},{"pitch":38,"velocity":90,"time":2636,"duration":0.7272727272727273,"channel":9},{"pitch":42,"velocity":60,"time":2637.818181818182,"duration":1.4545454545454546,"channel":9},{"pitch":42,"velocity":20,"time":2640.7272727272725,"duration":0.7272727272727273,"channel":9},{"pitch":42,"velocity":60,"time":2641.4545454545455,"duration":0.7272727272727273,"channel":9},{"pitch":38,"velocity":90,"time":2644,"duration":0.7272727272727273,"channel":9},{"pitch":36,"velocity":120,"time":2646.909090909091,"duration":1.8181818181818183,"channel":9},{"pitch":42,"velocity":20,"time":2648.7272727272725,"duration":1.0909090909090908,"channel":9},{"pitch":42,"velocity":60,"time":2649.818181818182,"duration":1.4545454545454546,"channel":9},{"pitch":36,"velocity":120,"time":2656,"duration":0.7272727272727273,"channel":9},{"pitch":42,"velocity":60,"time":2657.4545454545455,"duration":0.7272727272727273,"channel":9},{"pitch":38,"velocity":90,"time":2660,"duration":0.7272727272727273,"channel":9},{"pitch":42,"velocity":60,"time":2661.4545454545455,"duration":0.7272727272727273,"channel":9},{"pitch":42,"velocity":20,"time":2662.181818181818,"duration":0.7272727272727273,"channel":9},{"pitch":36,"velocity":120,"time":2662.909090909091,"duration":1.8181818181818183,"channel":9},{"pitch":38,"velocity":90,"time":2668,"duration":0.7272727272727273,"channel":9},{"pitch":42,"velocity":60,"time":2669.818181818182,"duration":1.4545454545454546,"channel":9},{"pitch":42,"velocity":20,"time":2672.7272727272725,"duration":0.7272727272727273,"channel":9},{"pitch":42,"velocity":60,"time":2673.4545454545455,"duration":0.7272727272727273,"channel":9},{"pitch":38,"velocity":90,"time":2676,"duration":0.7272727272727273,"channel":9},{"pitch":36,"velocity":120,"time":2678.909090909091,"duration":1.8181818181818183,"channel":9},{"pitch":42,"velocity":20,"time":2680.7272727272725,"duration":1.0909090909090908,"channel":9},{"pitch":42,"velocity":60,"time":2681.818181818182,"duration":1.4545454545454546,"channel":9},{"pitch":36,"velocity":120,"time":2688,"duration":0.7272727272727273,"channel":9},{"pitch":42,"velocity":60,"time":2689.4545454545455,"duration":0.7272727272727273,"channel":9},{"pitch":38,"velocity":90,"time":2692,"duration":0.7272727272727273,"channel":9},{"pitch":42,"velocity":60,"time":2693.4545454545455,"duration":0.7272727272727273,"channel":9},{"pitch":42,"velocity":20,"time":2694.181818181818,"duration":0.7272727272727273,"channel":9},{"pitch":36,"velocity":120,"time":2694.909090909091,"duration":1.8181818181818183,"channel":9},{"pitch":38,"velocity":90,"time":2700,"duration":0.7272727272727273,"channel":9},{"pitch":42,"velocity":60,"time":2701.818181818182,"duration":1.4545454545454546,"channel":9},{"pitch":42,"velocity":20,"time":2704.7272727272725,"duration":0.7272727272727273,"channel":9},{"pitch":42,"velocity":60,"time":2705.4545454545455,"duration":0.7272727272727273,"channel":9},{"pitch":38,"velocity":90,"time":2708,"duration":0.7272727272727273,"channel":9},{"pitch":36,"velocity":120,"time":2710.909090909091,"duration":1.8181818181818183,"channel":9},{"pitch":42,"velocity":20,"time":2712.7272727272725,"duration":1.0909090909090908,"channel":9},{"pitch":42,"velocity":60,"time":2713.818181818182,"duration":1.4545454545454546,"channel":9},{"pitch":36,"velocity":120,"time":2720,"duration":0.7272727272727273,"channel":9},{"pitch":42,"velocity":60,"time":2721.4545454545455,"duration":0.7272727272727273,"channel":9},{"pitch":38,"velocity":90,"time":2724,"duration":0.7272727272727273,"channel":9},{"pitch":42,"velocity":60,"time":2725.4545454545455,"duration":0.7272727272727273,"channel":9},{"pitch":42,"velocity":20,"time":2726.181818181818,"duration":0.7272727272727273,"channel":9},{"pitch":36,"velocity":120,"time":2726.909090909091,"duration":1.8181818181818183,"channel":9},{"pitch":38,"velocity":90,"time":2732,"duration":0.7272727272727273,"channel":9},{"pitch":42,"velocity":60,"time":2733.818181818182,"duration":1.4545454545454546,"channel":9},{"pitch":42,"velocity":20,"time":2736.7272727272725,"duration":0.7272727272727273,"channel":9},{"pitch":42,"velocity":60,"time":2737.4545454545455,"duration":0.7272727272727273,"channel":9},{"pitch":38,"velocity":90,"time":2740,"duration":0.7272727272727273,"channel":9},{"pitch":36,"velocity":120,"time":2742.909090909091,"duration":1.8181818181818183,"channel":9},{"pitch":42,"velocity":20,"time":2744.7272727272725,"duration":1.0909090909090908,"channel":9},{"pitch":42,"velocity":60,"time":2745.818181818182,"duration":1.4545454545454546,"channel":9},{"pitch":36,"velocity":120,"time":2752,"duration":0.7272727272727273,"channel":9},{"pitch":42,"velocity":60,"time":2753.4545454545455,"duration":0.7272727272727273,"channel":9},{"pitch":38,"velocity":90,"time":2756,"duration":0.7272727272727273,"channel":9},{"pitch":42,"velocity":60,"time":2757.4545454545455,"duration":0.7272727272727273,"channel":9},{"pitch":42,"velocity":20,"time":2758.181818181818,"duration":0.7272727272727273,"channel":9},{"pitch":36,"velocity":120,"time":2758.909090909091,"duration":1.8181818181818183,"channel":9},{"pitch":38,"velocity":90,"time":2764,"duration":0.7272727272727273,"channel":9},{"pitch":42,"velocity":60,"time":2765.818181818182,"duration":1.4545454545454546,"channel":9},{"pitch":42,"velocity":20,"time":2768.7272727272725,"duration":0.7272727272727273,"channel":9},{"pitch":42,"velocity":60,"time":2769.4545454545455,"duration":0.7272727272727273,"channel":9},{"pitch":38,"velocity":90,"time":2772,"duration":0.7272727272727273,"channel":9},{"pitch":36,"velocity":120,"time":2774.909090909091,"duration":1.8181818181818183,"channel":9},{"pitch":42,"velocity":20,"time":2776.7272727272725,"duration":1.0909090909090908,"channel":9},{"pitch":42,"velocity":60,"time":2777.818181818182,"duration":1.4545454545454546,"channel":9},{"pitch":36,"velocity":120,"time":2784,"duration":0.7272727272727273,"channel":9},{"pitch":42,"velocity":60,"time":2785.4545454545455,"duration":0.7272727272727273,"channel":9},{"pitch":38,"velocity":90,"time":2788,"duration":0.7272727272727273,"channel":9},{"pitch":42,"velocity":60,"time":2789.4545454545455,"duration":0.7272727272727273,"channel":9},{"pitch":42,"velocity":20,"time":2790.181818181818,"duration":0.7272727272727273,"channel":9},{"pitch":36,"velocity":120,"time":2790.909090909091,"duration":1.8181818181818183,"channel":9},{"pitch":38,"velocity":90,"time":2796,"duration":0.7272727272727273,"channel":9},{"pitch":42,"velocity":60,"time":2797.818181818182,"duration":1.4545454545454546,"channel":9},{"pitch":42,"velocity":20,"time":2800.7272727272725,"duration":0.7272727272727273,"channel":9},{"pitch":42,"velocity":60,"time":2801.4545454545455,"duration":0.7272727272727273,"channel":9},{"pitch":38,"velocity":90,"time":2804,"duration":0.7272727272727273,"channel":9},{"pitch":36,"velocity":120,"time":2806.909090909091,"duration":1.8181818181818183,"channel":9},{"pitch":42,"velocity":20,"time":2808.7272727272725,"duration":1.0909090909090908,"channel":9},{"pitch":42,"velocity":60,"time":2809.818181818182,"duration":1.4545454545454546,"channel":9},{"pitch":36,"velocity":120,"time":2816,"duration":0.7272727272727273,"channel":9},{"pitch":42,"velocity":60,"time":2817.4545454545455,"duration":0.7272727272727273,"channel":9},{"pitch":38,"velocity":90,"time":2820,"duration":0.7272727272727273,"channel":9},{"pitch":42,"velocity":60,"time":2821.4545454545455,"duration":0.7272727272727273,"channel":9},{"pitch":42,"velocity":20,"time":2822.181818181818,"duration":0.7272727272727273,"channel":9},{"pitch":36,"velocity":120,"time":2822.909090909091,"duration":1.8181818181818183,"channel":9},{"pitch":38,"velocity":90,"time":2828,"duration":0.7272727272727273,"channel":9},{"pitch":42,"velocity":60,"time":2829.818181818182,"duration":1.4545454545454546,"channel":9},{"pitch":42,"velocity":20,"time":2832.7272727272725,"duration":0.7272727272727273,"channel":9},{"pitch":42,"velocity":60,"time":2833.4545454545455,"duration":0.7272727272727273,"channel":9},{"pitch":38,"velocity":90,"time":2836,"duration":0.7272727272727273,"channel":9},{"pitch":36,"velocity":120,"time":2838.909090909091,"duration":1.8181818181818183,"channel":9},{"pitch":42,"velocity":20,"time":2840.7272727272725,"duration":1.0909090909090908,"channel":9},{"pitch":42,"velocity":60,"time":2841.818181818182,"duration":1.4545454545454546,"channel":9},{"pitch":36,"velocity":120,"time":2848,"duration":0.7272727272727273,"channel":9},{"pitch":42,"velocity":60,"time":2849.4545454545455,"duration":0.7272727272727273,"channel":9},{"pitch":38,"velocity":90,"time":2852,"duration":0.7272727272727273,"channel":9},{"pitch":42,"velocity":60,"time":2853.4545454545455,"duration":0.7272727272727273,"channel":9},{"pitch":42,"velocity":20,"time":2854.181818181818,"duration":0.7272727272727273,"channel":9},{"pitch":36,"velocity":120,"time":2854.909090909091,"duration":1.8181818181818183,"channel":9},{"pitch":38,"velocity":90,"time":2860,"duration":0.7272727272727273,"channel":9},{"pitch":42,"velocity":60,"time":2861.818181818182,"duration":1.4545454545454546,"channel":9},{"pitch":42,"velocity":20,"time":2864.7272727272725,"duration":0.7272727272727273,"channel":9},{"pitch":42,"velocity":60,"time":2865.4545454545455,"duration":0.7272727272727273,"channel":9},{"pitch":38,"velocity":90,"time":2868,"duration":0.7272727272727273,"channel":9},{"pitch":36,"velocity":120,"time":2870.909090909091,"duration":1.8181818181818183,"channel":9},{"pitch":42,"velocity":20,"time":2872.7272727272725,"duration":1.0909090909090908,"channel":9},{"pitch":42,"velocity":60,"time":2873.818181818182,"duration":1.4545454545454546,"channel":9},{"pitch":36,"velocity":120,"time":2880,"duration":0.7272727272727273,"channel":9},{"pitch":42,"velocity":60,"time":2881.4545454545455,"duration":0.7272727272727273,"channel":9},{"pitch":38,"velocity":90,"time":2884,"duration":0.7272727272727273,"channel":9},{"pitch":42,"velocity":60,"time":2885.4545454545455,"duration":0.7272727272727273,"channel":9},{"pitch":42,"velocity":20,"time":2886.181818181818,"duration":0.7272727272727273,"channel":9},{"pitch":36,"velocity":120,"time":2886.909090909091,"duration":1.8181818181818183,"channel":9},{"pitch":38,"velocity":90,"time":2892,"duration":0.7272727272727273,"channel":9},{"pitch":42,"velocity":60,"time":2893.818181818182,"duration":1.4545454545454546,"channel":9},{"pitch":42,"velocity":20,"time":2896.7272727272725,"duration":0.7272727272727273,"channel":9},{"pitch":42,"velocity":60,"time":2897.4545454545455,"duration":0.7272727272727273,"channel":9},{"pitch":38,"velocity":90,"time":2900,"duration":0.7272727272727273,"channel":9},{"pitch":36,"velocity":120,"time":2902.909090909091,"duration":1.8181818181818183,"channel":9},{"pitch":42,"velocity":20,"time":2904.7272727272725,"duration":1.0909090909090908,"channel":9},{"pitch":42,"velocity":60,"time":2905.818181818182,"duration":1.4545454545454546,"channel":9},{"pitch":36,"velocity":120,"time":2912,"duration":0.7272727272727273,"channel":9},{"pitch":42,"velocity":60,"time":2913.4545454545455,"duration":0.7272727272727273,"channel":9},{"pitch":38,"velocity":90,"time":2916,"duration":0.7272727272727273,"channel":9},{"pitch":42,"velocity":60,"time":2917.4545454545455,"duration":0.7272727272727273,"channel":9},{"pitch":42,"velocity":20,"time":2918.181818181818,"duration":0.7272727272727273,"channel":9},{"pitch":36,"velocity":120,"time":2918.909090909091,"duration":1.8181818181818183,"channel":9},{"pitch":38,"velocity":90,"time":2924,"duration":0.7272727272727273,"channel":9},{"pitch":42,"velocity":60,"time":2925.818181818182,"duration":1.4545454545454546,"channel":9},{"pitch":42,"velocity":20,"time":2928.7272727272725,"duration":0.7272727272727273,"channel":9},{"pitch":42,"velocity":60,"time":2929.4545454545455,"duration":0.7272727272727273,"channel":9},{"pitch":38,"velocity":90,"time":2932,"duration":0.7272727272727273,"channel":9},{"pitch":36,"velocity":120,"time":2934.909090909091,"duration":1.8181818181818183,"channel":9},{"pitch":42,"velocity":20,"time":2936.7272727272725,"duration":1.0909090909090908,"channel":9},{"pitch":42,"velocity":60,"time":2937.818181818182,"duration":1.4545454545454546,"channel":9},{"pitch":36,"velocity":120,"time":2944,"duration":0.7272727272727273,"channel":9},{"pitch":42,"velocity":60,"time":2945.4545454545455,"duration":0.7272727272727273,"channel":9},{"pitch":38,"velocity":90,"time":2948,"duration":0.7272727272727273,"channel":9},{"pitch":42,"velocity":60,"time":2949.4545454545455,"duration":0.7272727272727273,"channel":9},{"pitch":42,"velocity":20,"time":2950.181818181818,"duration":0.7272727272727273,"channel":9},{"pitch":36,"velocity":120,"time":2950.909090909091,"duration":1.8181818181818183,"channel":9},{"pitch":38,"velocity":90,"time":2956,"duration":0.7272727272727273,"channel":9},{"pitch":42,"velocity":60,"time":2957.818181818182,"duration":1.4545454545454546,"channel":9},{"pitch":42,"velocity":20,"time":2960.7272727272725,"duration":0.7272727272727273,"channel":9},{"pitch":42,"velocity":60,"time":2961.4545454545455,"duration":0.7272727272727273,"channel":9},{"pitch":38,"velocity":90,"time":2964,"duration":0.7272727272727273,"channel":9},{"pitch":36,"velocity":120,"time":2966.909090909091,"duration":1.8181818181818183,"channel":9},{"pitch":42,"velocity":20,"time":2968.7272727272725,"duration":1.0909090909090908,"channel":9},{"pitch":42,"velocity":60,"time":2969.818181818182,"duration":1.4545454545454546,"channel":9},{"pitch":36,"velocity":120,"time":2976,"duration":0.7272727272727273,"channel":9},{"pitch":42,"velocity":60,"time":2977.4545454545455,"duration":0.7272727272727273,"channel":9},{"pitch":38,"velocity":90,"time":2980,"duration":0.7272727272727273,"channel":9},{"pitch":42,"velocity":60,"time":2981.4545454545455,"duration":0.7272727272727273,"channel":9},{"pitch":42,"velocity":20,"time":2982.181818181818,"duration":0.7272727272727273,"channel":9},{"pitch":36,"velocity":120,"time":2982.909090909091,"duration":1.8181818181818183,"channel":9},{"pitch":38,"velocity":90,"time":2988,"duration":0.7272727272727273,"channel":9},{"pitch":42,"velocity":60,"time":2989.818181818182,"duration":1.4545454545454546,"channel":9},{"pitch":42,"velocity":20,"time":2992.7272727272725,"duration":0.7272727272727273,"channel":9},{"pitch":42,"velocity":60,"time":2993.4545454545455,"duration":0.7272727272727273,"channel":9},{"pitch":38,"velocity":90,"time":2996,"duration":0.7272727272727273,"channel":9},{"pitch":36,"velocity":120,"time":2998.909090909091,"duration":1.8181818181818183,"channel":9},{"pitch":42,"velocity":20,"time":3000.7272727272725,"duration":1.0909090909090908,"channel":9},{"pitch":42,"velocity":60,"time":3001.818181818182,"duration":1.4545454545454546,"channel":9}],"bpm":320}
